<?xml version="1.0" encoding="utf-8" standalone="no"?>
<!DOCTYPE svg PUBLIC "-//W3C//DTD SVG 1.1//EN"
  "http://www.w3.org/Graphics/SVG/1.1/DTD/svg11.dtd">
<svg xmlns:xlink="http://www.w3.org/1999/xlink" width="720pt" height="617.142857pt" viewBox="0 0 720 617.142857" xmlns="http://www.w3.org/2000/svg" version="1.1">
 <metadata>
  <rdf:RDF xmlns:dc="http://purl.org/dc/elements/1.1/" xmlns:cc="http://creativecommons.org/ns#" xmlns:rdf="http://www.w3.org/1999/02/22-rdf-syntax-ns#">
   <cc:Work>
    <dc:type rdf:resource="http://purl.org/dc/dcmitype/StillImage"/>
    <dc:format>image/svg+xml</dc:format>
    <dc:creator>
     <cc:Agent>
      <dc:title>Matplotlib v3.11.2, https://matplotlib.org/</dc:title>
     </cc:Agent>
    </dc:creator>
   </cc:Work>
  </rdf:RDF>
 </metadata>
 <defs>
  <style type="text/css">*{stroke-linejoin: round; stroke-linecap: butt}</style>
 </defs>
 <g id="figure_1">
  <g id="patch_1">
   <path d="M 0 617.142857 
L 720 617.142857 
L 720 0 
L 0 0 
z
" style="fill: #ffffff"/>
  </g>
  <g id="axes_1">
   <g id="patch_2">
    <path d="M 14.693878 308.571429 
L 14.693878 40.408163 
Q 14.693878 22.040816 33.061224 22.040816 
L 686.938776 22.040816 
Q 705.306122 22.040816 705.306122 40.408163 
L 705.306122 576.734694 
Q 705.306122 595.102041 686.938776 595.102041 
L 33.061224 595.102041 
Q 14.693878 595.102041 14.693878 576.734694 
z
" clip-path="url(#pecbf88852a)" style="fill: #eef2f6; stroke: #bac4d2; stroke-width: 1.5; stroke-linejoin: miter"/>
   </g>
   <g id="text_1">
    <g clip-path="url(#pecbf88852a)">
     <text style="font-size: 11.8px; font-family: 'drawlib-cjk-japanese-noto-sans-bold', 'Noto Sans CJK JP'; text-anchor: middle; fill: #323a48" x="360" y="69.880933" transform="rotate(-0 360 69.880933)">Multi-Page Site Compiler &amp; Interactive Page Anatomy</text>
    </g>
   </g>
   <g id="patch_3">
    <path d="M 51.428571 157.959184 
L 51.428571 121.22449 
Q 51.428571 110.204082 62.44898 110.204082 
L 216.734694 110.204082 
Q 227.755102 110.204082 227.755102 121.22449 
L 227.755102 194.693878 
Q 227.755102 205.714286 216.734694 205.714286 
L 62.44898 205.714286 
Q 51.428571 205.714286 51.428571 194.693878 
z
" clip-path="url(#pecbf88852a)" style="fill: #e8f2ff; stroke: #7891f2; stroke-width: 1.5; stroke-linejoin: miter"/>
   </g>
   <g id="text_2">
    <g clip-path="url(#pecbf88852a)">
     <text style="font-size: 8.2px; font-family: 'drawlib-cjk-japanese-noto-sans-bold', 'Noto Sans CJK JP'; fill: #323a48" transform="translate(120.354509 152.121168)">docs_src/</text>
    </g>
    <g clip-path="url(#pecbf88852a)">
     <text style="font-size: 8.2px; font-family: 'drawlib-cjk-japanese-noto-sans-bold', 'Noto Sans CJK JP'; fill: #323a48" transform="translate(91.457196 160.820856)">• index.md &amp; navbar.md</text>
    </g>
    <g clip-path="url(#pecbf88852a)">
     <text style="font-size: 8.2px; font-family: 'drawlib-cjk-japanese-noto-sans-bold', 'Noto Sans CJK JP'; fill: #323a48" transform="translate(95.734009 169.020856)">• Nested */*.md pages</text>
    </g>
   </g>
   <g id="patch_4">
    <path d="M 279.183673 157.959184 
L 279.183673 121.22449 
Q 279.183673 110.204082 290.204082 110.204082 
L 429.795918 110.204082 
Q 440.816327 110.204082 440.816327 121.22449 
L 440.816327 194.693878 
Q 440.816327 205.714286 429.795918 205.714286 
L 290.204082 205.714286 
Q 279.183673 205.714286 279.183673 194.693878 
z
" clip-path="url(#pecbf88852a)" style="fill: #4862da"/>
   </g>
   <g id="text_3">
    <g clip-path="url(#pecbf88852a)">
     <text style="font-size: 8.5px; font-family: 'drawlib-cjk-japanese-noto-sans-bold', 'Noto Sans CJK JP'; fill: #ffffff" transform="translate(331.678398 152.285434)">Site Compiler</text>
    </g>
    <g clip-path="url(#pecbf88852a)">
     <text style="font-size: 8.5px; font-family: 'drawlib-cjk-japanese-noto-sans-bold', 'Noto Sans CJK JP'; fill: #ffffff" transform="translate(321.306406 161.592934)">drawlib build html</text>
    </g>
    <g clip-path="url(#pecbf88852a)">
     <text style="font-size: 8.5px; font-family: 'drawlib-cjk-japanese-noto-sans-bold', 'Noto Sans CJK JP'; fill: #ffffff" transform="translate(324.416875 170.092934)">drawlib build md</text>
    </g>
   </g>
   <g id="patch_5">
    <path d="M 488.571429 132.244898 
L 488.571429 119.020408 
Q 488.571429 110.204082 497.387755 110.204082 
L 656.081633 110.204082 
Q 664.897959 110.204082 664.897959 119.020408 
L 664.897959 145.469388 
Q 664.897959 154.285714 656.081633 154.285714 
L 497.387755 154.285714 
Q 488.571429 154.285714 488.571429 145.469388 
z
" clip-path="url(#pecbf88852a)" style="fill: #e6fafa; stroke: #55c3c3; stroke-width: 1.5; stroke-linejoin: miter"/>
   </g>
   <g id="text_4">
    <g clip-path="url(#pecbf88852a)">
     <text style="font-size: 8.2px; font-family: 'drawlib-cjk-japanese-noto-sans-bold', 'Noto Sans CJK JP'; text-anchor: middle; fill: #323a48" x="576.734694" y="135.02457" transform="rotate(-0 576.734694 135.02457)">docs_html/ (Web Portal)</text>
    </g>
   </g>
   <g id="patch_6">
    <path d="M 488.571429 183.673469 
L 488.571429 170.44898 
Q 488.571429 161.632653 497.387755 161.632653 
L 656.081633 161.632653 
Q 664.897959 161.632653 664.897959 170.44898 
L 664.897959 196.897959 
Q 664.897959 205.714286 656.081633 205.714286 
L 497.387755 205.714286 
Q 488.571429 205.714286 488.571429 196.897959 
z
" clip-path="url(#pecbf88852a)" style="fill: #e8f2ff; stroke: #7891f2; stroke-width: 1.5; stroke-linejoin: miter"/>
   </g>
   <g id="text_5">
    <g clip-path="url(#pecbf88852a)">
     <text style="font-size: 8.2px; font-family: 'drawlib-cjk-japanese-noto-sans-bold', 'Noto Sans CJK JP'; text-anchor: middle; fill: #323a48" x="576.734694" y="186.453141" transform="rotate(-0 576.734694 186.453141)">docs_markdown/ (GitHub)</text>
    </g>
   </g>
   <g id="patch_7">
    <path d="M 227.755102 157.959184 
L 276.388588 157.959184 
" clip-path="url(#pecbf88852a)" style="fill: none; stroke: #323a48; stroke-width: 2.5; stroke-linecap: round"/>
    <path d="M 268.388588 153.959184 
L 276.388588 157.959184 
L 268.388588 161.959184 
" clip-path="url(#pecbf88852a)" style="fill: none; stroke: #323a48; stroke-width: 2.5; stroke-linecap: round"/>
   </g>
   <g id="patch_8">
    <path d="M 440.816327 143.265306 
L 485.847922 132.873399 
" clip-path="url(#pecbf88852a)" style="fill: none; stroke: #323a48; stroke-width: 2.5; stroke-linecap: round"/>
    <path d="M 477.153355 130.774711 
L 485.847922 132.873399 
L 478.952231 138.56984 
" clip-path="url(#pecbf88852a)" style="fill: none; stroke: #323a48; stroke-width: 2.5; stroke-linecap: round"/>
   </g>
   <g id="patch_9">
    <path d="M 440.816327 172.653061 
L 485.847922 183.044968 
" clip-path="url(#pecbf88852a)" style="fill: none; stroke: #323a48; stroke-width: 2.5; stroke-linecap: round"/>
    <path d="M 478.952231 177.348527 
L 485.847922 183.044968 
L 477.153355 185.143657 
" clip-path="url(#pecbf88852a)" style="fill: none; stroke: #323a48; stroke-width: 2.5; stroke-linecap: round"/>
   </g>
   <g id="patch_10">
    <path d="M 44.081633 404.081633 
L 44.081633 257.142857 
Q 44.081633 242.44898 58.77551 242.44898 
L 661.22449 242.44898 
Q 675.918367 242.44898 675.918367 257.142857 
L 675.918367 551.020408 
Q 675.918367 565.714286 661.22449 565.714286 
L 58.77551 565.714286 
Q 44.081633 565.714286 44.081633 551.020408 
z
" clip-path="url(#pecbf88852a)" style="fill: #ffffff; stroke: #272727; stroke-width: 1.5; stroke-linejoin: miter"/>
   </g>
   <g id="patch_11">
    <path d="M 44.081633 264.489796 
L 44.081633 249.795918 
Q 44.081633 242.44898 51.428571 242.44898 
L 668.571429 242.44898 
Q 675.918367 242.44898 675.918367 249.795918 
L 675.918367 279.183673 
Q 675.918367 286.530612 668.571429 286.530612 
L 51.428571 286.530612 
Q 44.081633 286.530612 44.081633 279.183673 
z
" clip-path="url(#pecbf88852a)" style="fill: #323a48"/>
   </g>
   <g id="text_6">
    <g clip-path="url(#pecbf88852a)">
     <text style="font-size: 8.2px; font-family: 'drawlib-cjk-japanese-noto-sans-bold', 'Noto Sans CJK JP'; text-anchor: middle; fill: #ffffff" x="360" y="267.216296" transform="rotate(-0 360 267.216296)">Browser Preview:  http://localhost:8000/architecture/index.html   [drawlib serve --check: 0 broken links]</text>
    </g>
   </g>
   <g id="patch_12">
    <path d="M 58.77551 426.122449 
L 58.77551 310.040816 
Q 58.77551 301.22449 67.591837 301.22449 
L 218.938776 301.22449 
Q 227.755102 301.22449 227.755102 310.040816 
L 227.755102 542.204082 
Q 227.755102 551.020408 218.938776 551.020408 
L 67.591837 551.020408 
Q 58.77551 551.020408 58.77551 542.204082 
z
" clip-path="url(#pecbf88852a)" style="fill: #e8f2ff; stroke: #7891f2; stroke-width: 1.5; stroke-linejoin: miter"/>
   </g>
   <g id="text_7">
    <g clip-path="url(#pecbf88852a)">
     <text style="font-size: 8.5px; font-family: 'drawlib-cjk-japanese-noto-sans-bold', 'Noto Sans CJK JP'; text-anchor: middle; fill: #4862da" x="143.265306" y="330.168776" transform="rotate(-0 143.265306 330.168776)">navbar.md Sidebar</text>
    </g>
   </g>
   <g id="patch_13">
    <path d="M 71.632653 367.346939 
L 71.632653 357.795918 
Q 71.632653 351.918367 77.510204 351.918367 
L 209.020408 351.918367 
Q 214.897959 351.918367 214.897959 357.795918 
L 214.897959 376.897959 
Q 214.897959 382.77551 209.020408 382.77551 
L 77.510204 382.77551 
Q 71.632653 382.77551 71.632653 376.897959 
z
" clip-path="url(#pecbf88852a)" style="fill: #ffffff; stroke: #272727; stroke-width: 1.5; stroke-linejoin: miter"/>
   </g>
   <g id="text_8">
    <g clip-path="url(#pecbf88852a)">
     <text style="font-size: 7.8px; font-family: 'drawlib-cjk-japanese-noto-sans-regular', 'Noto Sans CJK JP'; text-anchor: middle; fill: #323a48" x="143.265306" y="370.014783" transform="rotate(-0 143.265306 370.014783)">Home (index.md)</text>
    </g>
   </g>
   <g id="patch_14">
    <path d="M 71.632653 407.755102 
L 71.632653 398.204082 
Q 71.632653 392.326531 77.510204 392.326531 
L 209.020408 392.326531 
Q 214.897959 392.326531 214.897959 398.204082 
L 214.897959 417.306122 
Q 214.897959 423.183673 209.020408 423.183673 
L 77.510204 423.183673 
Q 71.632653 423.183673 71.632653 417.306122 
z
" clip-path="url(#pecbf88852a)" style="fill: #4862da"/>
   </g>
   <g id="text_9">
    <g clip-path="url(#pecbf88852a)">
     <text style="font-size: 7.8px; font-family: 'drawlib-cjk-japanese-noto-sans-bold', 'Noto Sans CJK JP'; text-anchor: middle; fill: #ffffff" x="143.265306" y="410.719102" transform="rotate(-0 143.265306 410.719102)">• Cloud Architecture</text>
    </g>
   </g>
   <g id="patch_15">
    <path d="M 71.632653 448.163265 
L 71.632653 438.612245 
Q 71.632653 432.734694 77.510204 432.734694 
L 209.020408 432.734694 
Q 214.897959 432.734694 214.897959 438.612245 
L 214.897959 457.714286 
Q 214.897959 463.591837 209.020408 463.591837 
L 77.510204 463.591837 
Q 71.632653 463.591837 71.632653 457.714286 
z
" clip-path="url(#pecbf88852a)" style="fill: #ffffff; stroke: #272727; stroke-width: 1.5; stroke-linejoin: miter"/>
   </g>
   <g id="text_10">
    <g clip-path="url(#pecbf88852a)">
     <text style="font-size: 7.8px; font-family: 'drawlib-cjk-japanese-noto-sans-regular', 'Noto Sans CJK JP'; text-anchor: middle; fill: #323a48" x="143.265306" y="450.701922" transform="rotate(-0 143.265306 450.701922)">API Sequence Flows</text>
    </g>
   </g>
   <g id="patch_16">
    <path d="M 71.632653 488.571429 
L 71.632653 479.020408 
Q 71.632653 473.142857 77.510204 473.142857 
L 209.020408 473.142857 
Q 214.897959 473.142857 214.897959 479.020408 
L 214.897959 498.122449 
Q 214.897959 504 209.020408 504 
L 77.510204 504 
Q 71.632653 504 71.632653 498.122449 
z
" clip-path="url(#pecbf88852a)" style="fill: #ffffff; stroke: #272727; stroke-width: 1.5; stroke-linejoin: miter"/>
   </g>
   <g id="text_11">
    <g clip-path="url(#pecbf88852a)">
     <text style="font-size: 7.8px; font-family: 'drawlib-cjk-japanese-noto-sans-regular', 'Noto Sans CJK JP'; text-anchor: middle; fill: #323a48" x="143.265306" y="491.535429" transform="rotate(-0 143.265306 491.535429)">Database ER Models</text>
    </g>
   </g>
   <g id="text_12">
    <g clip-path="url(#pecbf88852a)">
     <text style="font-size: 7.5px; font-family: 'drawlib-cjk-japanese-noto-sans-bold', 'Noto Sans CJK JP'; text-anchor: middle; fill: #5f6b7d" x="143.265306" y="531.368459" transform="rotate(-0 143.265306 531.368459)">Active Page Highlighted</text>
    </g>
   </g>
   <g id="patch_17">
    <path d="M 249.795918 426.122449 
L 249.795918 310.040816 
Q 249.795918 301.22449 258.612245 301.22449 
L 645.061224 301.22449 
Q 653.877551 301.22449 653.877551 310.040816 
L 653.877551 542.204082 
Q 653.877551 551.020408 645.061224 551.020408 
L 258.612245 551.020408 
Q 249.795918 551.020408 249.795918 542.204082 
z
" clip-path="url(#pecbf88852a)" style="fill: #eef2f6; stroke: #bac4d2; stroke-width: 1.5; stroke-linejoin: miter"/>
   </g>
   <g id="text_13">
    <g clip-path="url(#pecbf88852a)">
     <text style="font-size: 9.2px; font-family: 'drawlib-cjk-japanese-noto-sans-bold', 'Noto Sans CJK JP'; text-anchor: start; fill: #323a48" x="271.836735" y="329.997776" transform="rotate(-0 271.836735 329.997776)"># Cloud Architecture Specification</text>
    </g>
   </g>
   <g id="patch_18">
    <path d="M 271.836735 444.489796 
L 271.836735 371.020408 
Q 271.836735 360 282.857143 360 
L 620.816327 360 
Q 631.836735 360 631.836735 371.020408 
L 631.836735 517.959184 
Q 631.836735 528.979592 620.816327 528.979592 
L 282.857143 528.979592 
Q 271.836735 528.979592 271.836735 517.959184 
z
" clip-path="url(#pecbf88852a)" style="fill: #ffffff; stroke: #272727; stroke-width: 1.5; stroke-linejoin: miter"/>
   </g>
   <g id="patch_19">
    <path d="M 279.183673 378.367347 
L 279.183673 369.55102 
Q 279.183673 363.673469 285.061224 363.673469 
L 405.55102 363.673469 
Q 411.428571 363.673469 411.428571 369.55102 
L 411.428571 387.183673 
Q 411.428571 393.061224 405.55102 393.061224 
L 285.061224 393.061224 
Q 279.183673 393.061224 279.183673 387.183673 
z
" clip-path="url(#pecbf88852a)" style="fill: #4862da"/>
   </g>
   <g id="text_14">
    <g clip-path="url(#pecbf88852a)">
     <text style="font-size: 7.5px; font-family: 'drawlib-cjk-japanese-noto-sans-bold', 'Noto Sans CJK JP'; text-anchor: middle; fill: #ffffff" x="345.306122" y="380.756214" transform="rotate(-0 345.306122 380.756214)">[Tab 1] Diagram</text>
    </g>
   </g>
   <g id="patch_20">
    <path d="M 422.44898 378.367347 
L 422.44898 369.55102 
Q 422.44898 363.673469 428.326531 363.673469 
L 548.816327 363.673469 
Q 554.693878 363.673469 554.693878 369.55102 
L 554.693878 387.183673 
Q 554.693878 393.061224 548.816327 393.061224 
L 428.326531 393.061224 
Q 422.44898 393.061224 422.44898 387.183673 
z
" clip-path="url(#pecbf88852a)" style="fill: #e8f2ff; stroke: #7891f2; stroke-width: 1.5; stroke-linejoin: miter"/>
   </g>
   <g id="text_15">
    <g clip-path="url(#pecbf88852a)">
     <text style="font-size: 7.5px; font-family: 'drawlib-cjk-japanese-noto-sans-bold', 'Noto Sans CJK JP'; text-anchor: middle; fill: #323a48" x="488.571429" y="380.827113" transform="rotate(-0 488.571429 380.827113)">[Tab 2] Python Code</text>
    </g>
   </g>
   <g id="patch_21">
    <path d="M 290.204082 466.530612 
L 290.204082 418.77551 
Q 290.204082 411.428571 297.55102 411.428571 
L 606.122449 411.428571 
Q 613.469388 411.428571 613.469388 418.77551 
L 613.469388 514.285714 
Q 613.469388 521.632653 606.122449 521.632653 
L 297.55102 521.632653 
Q 290.204082 521.632653 290.204082 514.285714 
z
" clip-path="url(#pecbf88852a)" style="fill: #e6fafa; stroke: #55c3c3; stroke-width: 1.5; stroke-linejoin: miter"/>
   </g>
   <g id="text_16">
    <g clip-path="url(#pecbf88852a)">
     <text style="font-size: 8.2px; font-family: 'drawlib-cjk-japanese-noto-sans-bold', 'Noto Sans CJK JP'; fill: #323a48" transform="translate(373.991188 464.870112)">Rendered Vector SVG / PNG Illustration</text>
    </g>
    <g clip-path="url(#pecbf88852a)">
     <text style="font-size: 8.2px; font-family: 'drawlib-cjk-japanese-noto-sans-bold', 'Noto Sans CJK JP'; fill: #323a48" transform="translate(353.418157 473.5698)">+ Synchronized Python Source Code (show-code)</text>
    </g>
   </g>
  </g>
 </g>
 <defs>
  <clipPath id="pecbf88852a">
   <rect x="0" y="0" width="720" height="617.142857"/>
  </clipPath>
 </defs>
<!-- drawlib-svg-fonts: [{"family":"drawlib-cjk-japanese-noto-sans-bold","rel_path":"_assets/fonts/cjk_japanese_noto_sans/bold.otf","src":"builtin:fonts/cjk_japanese_noto_sans/bold.otf","format":"opentype"},{"family":"drawlib-cjk-japanese-noto-sans-regular","rel_path":"_assets/fonts/cjk_japanese_noto_sans/regular.otf","src":"builtin:fonts/cjk_japanese_noto_sans/regular.otf","format":"opentype"}] -->
</svg>
