<?xml version="1.0" encoding="utf-8" standalone="no"?>
<!DOCTYPE svg PUBLIC "-//W3C//DTD SVG 1.1//EN"
  "http://www.w3.org/Graphics/SVG/1.1/DTD/svg11.dtd">
<svg xmlns:xlink="http://www.w3.org/1999/xlink" width="720pt" height="560pt" viewBox="0 0 720 560" xmlns="http://www.w3.org/2000/svg" version="1.1">
 <metadata>
  <rdf:RDF xmlns:dc="http://purl.org/dc/elements/1.1/" xmlns:cc="http://creativecommons.org/ns#" xmlns:rdf="http://www.w3.org/1999/02/22-rdf-syntax-ns#">
   <cc:Work>
    <dc:type rdf:resource="http://purl.org/dc/dcmitype/StillImage"/>
    <dc:format>image/svg+xml</dc:format>
    <dc:creator>
     <cc:Agent>
      <dc:title>Matplotlib v3.11.2, https://matplotlib.org/</dc:title>
     </cc:Agent>
    </dc:creator>
   </cc:Work>
  </rdf:RDF>
 </metadata>
 <defs>
  <style type="text/css">*{stroke-linejoin: round; stroke-linecap: butt}</style>
 </defs>
 <g id="figure_1">
  <g id="patch_1">
   <path d="M 0 560 
L 720 560 
L 720 0 
L 0 0 
z
" style="fill: #ffffff"/>
  </g>
  <g id="axes_1">
   <g id="patch_2">
    <path d="M 26.666667 506.666667 
L 26.666667 18.666667 
L 693.333333 18.666667 
L 693.333333 506.666667 
z
" clip-path="url(#pe9bfb2d8ab)" style="fill: #eef2f6"/>
   </g>
   <g id="text_1">
    <g clip-path="url(#pe9bfb2d8ab)">
     <text style="font-size: 10.5px; font-family: 'drawlib-cjk-japanese-noto-sans-bold', 'Noto Sans CJK JP'; text-anchor: middle; fill: #323a48" x="360" y="37.448828" transform="rotate(-0 360 37.448828)">Drawlib 2.0 Platform Engineering Roadmap</text>
    </g>
   </g>
   <g id="patch_3">
    <path d="M 40 103.333333 
L 680 103.333333 
" clip-path="url(#pe9bfb2d8ab)" style="fill: none; stroke: #323a48; stroke-width: 1.5; stroke-linecap: round"/>
   </g>
   <g id="patch_4">
    <path d="M 40 62 
L 680 62 
" clip-path="url(#pe9bfb2d8ab)" style="fill: none; stroke: #323a48; stroke-width: 1.5; stroke-linecap: round"/>
   </g>
   <g id="patch_5">
    <path d="M 226.666667 103.333333 
L 226.666667 62 
" clip-path="url(#pe9bfb2d8ab)" style="fill: none; stroke: #323a48; stroke-width: 1.5; stroke-linecap: round"/>
   </g>
   <g id="patch_6">
    <path d="M 340 103.333333 
L 340 62 
" clip-path="url(#pe9bfb2d8ab)" style="fill: none; stroke: #323a48; stroke-width: 1.5; stroke-linecap: round"/>
   </g>
   <g id="patch_7">
    <path d="M 453.333333 103.333333 
L 453.333333 62 
" clip-path="url(#pe9bfb2d8ab)" style="fill: none; stroke: #323a48; stroke-width: 1.5; stroke-linecap: round"/>
   </g>
   <g id="patch_8">
    <path d="M 566.666667 103.333333 
L 566.666667 62 
" clip-path="url(#pe9bfb2d8ab)" style="fill: none; stroke: #323a48; stroke-width: 1.5; stroke-linecap: round"/>
   </g>
   <g id="text_2">
    <g clip-path="url(#pe9bfb2d8ab)">
     <text style="font-size: 8px; font-family: 'drawlib-cjk-japanese-noto-sans-regular', 'Noto Sans CJK JP'; text-anchor: start; fill: #323a48" x="50" y="85.470417" transform="rotate(-0 50 85.470417)">Task / Phase</text>
    </g>
   </g>
   <g id="text_3">
    <g clip-path="url(#pe9bfb2d8ab)">
     <text style="font-size: 8px; font-family: 'drawlib-cjk-japanese-noto-sans-regular', 'Noto Sans CJK JP'; text-anchor: middle; fill: #323a48" x="283.333333" y="85.402917" transform="rotate(-0 283.333333 85.402917)">Q1 (Jan-Mar)</text>
    </g>
   </g>
   <g id="text_4">
    <g clip-path="url(#pe9bfb2d8ab)">
     <text style="font-size: 8px; font-family: 'drawlib-cjk-japanese-noto-sans-regular', 'Noto Sans CJK JP'; text-anchor: middle; fill: #323a48" x="396.666667" y="85.270417" transform="rotate(-0 396.666667 85.270417)">Q2 (Apr-Jun)</text>
    </g>
   </g>
   <g id="text_5">
    <g clip-path="url(#pe9bfb2d8ab)">
     <text style="font-size: 8px; font-family: 'drawlib-cjk-japanese-noto-sans-regular', 'Noto Sans CJK JP'; text-anchor: middle; fill: #323a48" x="510" y="85.270417" transform="rotate(-0 510 85.270417)">Q3 (Jul-Sep)</text>
    </g>
   </g>
   <g id="text_6">
    <g clip-path="url(#pe9bfb2d8ab)">
     <text style="font-size: 8px; font-family: 'drawlib-cjk-japanese-noto-sans-regular', 'Noto Sans CJK JP'; text-anchor: middle; fill: #323a48" x="623.333333" y="85.402917" transform="rotate(-0 623.333333 85.402917)">Q4 (Oct-Dec)</text>
    </g>
   </g>
   <g id="patch_9">
    <path d="M 226.666667 103.333333 
L 226.666667 463.333333 
" clip-path="url(#pe9bfb2d8ab)" style="fill: none; stroke-dasharray: 5.55,2.4; stroke-dashoffset: 0; stroke: #8c98aa; stroke-width: 1.5; stroke-linecap: round"/>
   </g>
   <g id="patch_10">
    <path d="M 340 103.333333 
L 340 463.333333 
" clip-path="url(#pe9bfb2d8ab)" style="fill: none; stroke-dasharray: 5.55,2.4; stroke-dashoffset: 0; stroke: #8c98aa; stroke-width: 1.5; stroke-linecap: round"/>
   </g>
   <g id="patch_11">
    <path d="M 453.333333 103.333333 
L 453.333333 463.333333 
" clip-path="url(#pe9bfb2d8ab)" style="fill: none; stroke-dasharray: 5.55,2.4; stroke-dashoffset: 0; stroke: #8c98aa; stroke-width: 1.5; stroke-linecap: round"/>
   </g>
   <g id="patch_12">
    <path d="M 566.666667 103.333333 
L 566.666667 463.333333 
" clip-path="url(#pe9bfb2d8ab)" style="fill: none; stroke-dasharray: 5.55,2.4; stroke-dashoffset: 0; stroke: #8c98aa; stroke-width: 1.5; stroke-linecap: round"/>
   </g>
   <g id="patch_13">
    <path d="M 680 103.333333 
L 680 463.333333 
" clip-path="url(#pe9bfb2d8ab)" style="fill: none; stroke-dasharray: 5.55,2.4; stroke-dashoffset: 0; stroke: #8c98aa; stroke-width: 1.5; stroke-linecap: round"/>
   </g>
   <g id="patch_14">
    <path d="M 226.666667 103.333333 
L 226.666667 463.333333 
" clip-path="url(#pe9bfb2d8ab)" style="fill: none; stroke: #323a48; stroke-width: 1.5; stroke-linecap: round"/>
   </g>
   <g id="patch_15">
    <path d="M 40 139.333333 
L 680 139.333333 
" clip-path="url(#pe9bfb2d8ab)" style="fill: none; stroke-dasharray: 5.55,2.4; stroke-dashoffset: 0; stroke: #8c98aa; stroke-width: 1.5; stroke-linecap: round"/>
   </g>
   <g id="text_7">
    <g clip-path="url(#pe9bfb2d8ab)">
     <text style="font-size: 8px; font-family: 'drawlib-cjk-japanese-noto-sans-regular', 'Noto Sans CJK JP'; text-anchor: start; fill: #323a48" x="50" y="123.853333" transform="rotate(-0 50 123.853333)">1. Core Rendering &amp; Vector Engine</text>
    </g>
   </g>
   <g id="patch_16">
    <path d="M 40 175.333333 
L 40 139.333333 
L 680 139.333333 
L 680 175.333333 
z
" clip-path="url(#pe9bfb2d8ab)" style="fill: #bac4d2; stroke: #5f6b7d; stroke-width: 0.75; stroke-linejoin: miter"/>
   </g>
   <g id="patch_17">
    <path d="M 40 175.333333 
L 680 175.333333 
" clip-path="url(#pe9bfb2d8ab)" style="fill: none; stroke-dasharray: 5.55,2.4; stroke-dashoffset: 0; stroke: #8c98aa; stroke-width: 1.5; stroke-linecap: round"/>
   </g>
   <g id="text_8">
    <g clip-path="url(#pe9bfb2d8ab)">
     <text style="font-size: 8px; font-family: 'drawlib-cjk-japanese-noto-sans-regular', 'Noto Sans CJK JP'; text-anchor: start; fill: #323a48" x="50" y="160.373333" transform="rotate(-0 50 160.373333)">SVG Font &amp; Icon Auto-Bundler</text>
    </g>
   </g>
   <g id="patch_18">
    <path d="M 226.666667 157.333333 
L 226.666667 152.893333 
Q 226.666667 146.893333 232.666667 146.893333 
L 345.333333 146.893333 
Q 351.333333 146.893333 351.333333 152.893333 
L 351.333333 161.773333 
Q 351.333333 167.773333 345.333333 167.773333 
L 232.666667 167.773333 
Q 226.666667 167.773333 226.666667 161.773333 
z
" clip-path="url(#pe9bfb2d8ab)" style="fill: #4862da; fill-opacity: 0.28; stroke: #4862da; stroke-opacity: 0.5; stroke-width: 0.8; stroke-linejoin: miter"/>
   </g>
   <g id="patch_19">
    <path d="M 226.666667 157.333333 
L 226.666667 152.893333 
Q 226.666667 146.893333 232.666667 146.893333 
L 345.333333 146.893333 
Q 351.333333 146.893333 351.333333 152.893333 
L 351.333333 161.773333 
Q 351.333333 167.773333 345.333333 167.773333 
L 232.666667 167.773333 
Q 226.666667 167.773333 226.666667 161.773333 
z
" clip-path="url(#pe9bfb2d8ab)" style="fill: #4862da"/>
   </g>
   <g id="text_9">
    <g clip-path="url(#pe9bfb2d8ab)">
     <text style="font-size: 7.2px; font-family: 'drawlib-cjk-japanese-noto-sans-bold', 'Noto Sans CJK JP'; text-anchor: middle; fill: #ffffff" x="289" y="160.069333" transform="rotate(-0 289 160.069333)">100%</text>
    </g>
   </g>
   <g id="patch_20">
    <path d="M 40 211.333333 
L 680 211.333333 
" clip-path="url(#pe9bfb2d8ab)" style="fill: none; stroke-dasharray: 5.55,2.4; stroke-dashoffset: 0; stroke: #8c98aa; stroke-width: 1.5; stroke-linecap: round"/>
   </g>
   <g id="text_10">
    <g clip-path="url(#pe9bfb2d8ab)">
     <text style="font-size: 8px; font-family: 'drawlib-cjk-japanese-noto-sans-regular', 'Noto Sans CJK JP'; text-anchor: start; fill: #323a48" x="50" y="195.917083" transform="rotate(-0 50 195.917083)">Unified show &amp; scale Lifecycle</text>
    </g>
   </g>
   <g id="patch_21">
    <path d="M 306 193.333333 
L 306 188.893333 
Q 306 182.893333 312 182.893333 
L 447.333333 182.893333 
Q 453.333333 182.893333 453.333333 188.893333 
L 453.333333 197.773333 
Q 453.333333 203.773333 447.333333 203.773333 
L 312 203.773333 
Q 306 203.773333 306 197.773333 
z
" clip-path="url(#pe9bfb2d8ab)" style="fill: #4862da; fill-opacity: 0.28; stroke: #4862da; stroke-opacity: 0.5; stroke-width: 0.8; stroke-linejoin: miter"/>
   </g>
   <g id="patch_22">
    <path d="M 306 193.333333 
L 306 188.893333 
Q 306 182.893333 312 182.893333 
L 425.233333 182.893333 
Q 431.233333 182.893333 431.233333 188.893333 
L 431.233333 197.773333 
Q 431.233333 203.773333 425.233333 203.773333 
L 312 203.773333 
Q 306 203.773333 306 197.773333 
z
" clip-path="url(#pe9bfb2d8ab)" style="fill: #4862da"/>
   </g>
   <g id="text_11">
    <g clip-path="url(#pe9bfb2d8ab)">
     <text style="font-size: 7.2px; font-family: 'drawlib-cjk-japanese-noto-sans-bold', 'Noto Sans CJK JP'; text-anchor: middle; fill: #ffffff" x="368.616667" y="196.069333" transform="rotate(-0 368.616667 196.069333)">85%</text>
    </g>
   </g>
   <g id="patch_23">
    <path d="M 40 247.333333 
L 40 211.333333 
L 680 211.333333 
L 680 247.333333 
z
" clip-path="url(#pe9bfb2d8ab)" style="fill: #bac4d2; stroke: #5f6b7d; stroke-width: 0.75; stroke-linejoin: miter"/>
   </g>
   <g id="patch_24">
    <path d="M 40 247.333333 
L 680 247.333333 
" clip-path="url(#pe9bfb2d8ab)" style="fill: none; stroke-dasharray: 5.55,2.4; stroke-dashoffset: 0; stroke: #8c98aa; stroke-width: 1.5; stroke-linecap: round"/>
   </g>
   <g id="text_12">
    <g clip-path="url(#pe9bfb2d8ab)">
     <text style="font-size: 8px; font-family: 'drawlib-cjk-japanese-noto-sans-regular', 'Noto Sans CJK JP'; text-anchor: start; fill: #323a48" x="50" y="232.373333" transform="rotate(-0 50 232.373333)">v2.0 Core Freeze</text>
    </g>
   </g>
   <g id="patch_25">
    <path d="M 441.633333 229.333333 
L 453.333333 217.633333 
L 465.033333 229.333333 
L 453.333333 241.033333 
z
" clip-path="url(#pe9bfb2d8ab)" style="fill: #8037c3"/>
   </g>
   <g id="patch_26">
    <path d="M 40 283.333333 
L 680 283.333333 
" clip-path="url(#pe9bfb2d8ab)" style="fill: none; stroke-dasharray: 5.55,2.4; stroke-dashoffset: 0; stroke: #8c98aa; stroke-width: 1.5; stroke-linecap: round"/>
   </g>
   <g id="text_13">
    <g clip-path="url(#pe9bfb2d8ab)">
     <text style="font-size: 8px; font-family: 'drawlib-cjk-japanese-noto-sans-regular', 'Noto Sans CJK JP'; text-anchor: start; fill: #323a48" x="50" y="267.853333" transform="rotate(-0 50 267.853333)">2. Domain Diagrams &amp; Graph Solvers</text>
    </g>
   </g>
   <g id="patch_27">
    <path d="M 40 319.333333 
L 40 283.333333 
L 680 283.333333 
L 680 319.333333 
z
" clip-path="url(#pe9bfb2d8ab)" style="fill: #bac4d2; stroke: #5f6b7d; stroke-width: 0.75; stroke-linejoin: miter"/>
   </g>
   <g id="patch_28">
    <path d="M 40 319.333333 
L 680 319.333333 
" clip-path="url(#pe9bfb2d8ab)" style="fill: none; stroke-dasharray: 5.55,2.4; stroke-dashoffset: 0; stroke: #8c98aa; stroke-width: 1.5; stroke-linecap: round"/>
   </g>
   <g id="text_14">
    <g clip-path="url(#pe9bfb2d8ab)">
     <text style="font-size: 8px; font-family: 'drawlib-cjk-japanese-noto-sans-regular', 'Noto Sans CJK JP'; text-anchor: start; fill: #323a48" x="50" y="303.853333" transform="rotate(-0 50 303.853333)">6 Domain Diagram Engines</text>
    </g>
   </g>
   <g id="patch_29">
    <path d="M 362.666667 301.333333 
L 362.666667 296.893333 
Q 362.666667 290.893333 368.666667 290.893333 
L 515.333333 290.893333 
Q 521.333333 290.893333 521.333333 296.893333 
L 521.333333 305.773333 
Q 521.333333 311.773333 515.333333 311.773333 
L 368.666667 311.773333 
Q 362.666667 311.773333 362.666667 305.773333 
z
" clip-path="url(#pe9bfb2d8ab)" style="fill: #2a989a; fill-opacity: 0.28; stroke: #2a989a; stroke-opacity: 0.5; stroke-width: 0.8; stroke-linejoin: miter"/>
   </g>
   <g id="patch_30">
    <path d="M 362.666667 301.333333 
L 362.666667 296.893333 
Q 362.666667 290.893333 368.666667 290.893333 
L 451.866667 290.893333 
Q 457.866667 290.893333 457.866667 296.893333 
L 457.866667 305.773333 
Q 457.866667 311.773333 451.866667 311.773333 
L 368.666667 311.773333 
Q 362.666667 311.773333 362.666667 305.773333 
z
" clip-path="url(#pe9bfb2d8ab)" style="fill: #2a989a"/>
   </g>
   <g id="text_15">
    <g clip-path="url(#pe9bfb2d8ab)">
     <text style="font-size: 7.2px; font-family: 'drawlib-cjk-japanese-noto-sans-bold', 'Noto Sans CJK JP'; text-anchor: middle; fill: #ffffff" x="410.266667" y="304.069333" transform="rotate(-0 410.266667 304.069333)">60%</text>
    </g>
   </g>
   <g id="patch_31">
    <path d="M 40 355.333333 
L 680 355.333333 
" clip-path="url(#pe9bfb2d8ab)" style="fill: none; stroke-dasharray: 5.55,2.4; stroke-dashoffset: 0; stroke: #8c98aa; stroke-width: 1.5; stroke-linecap: round"/>
   </g>
   <g id="text_16">
    <g clip-path="url(#pe9bfb2d8ab)">
     <text style="font-size: 8px; font-family: 'drawlib-cjk-japanese-noto-sans-regular', 'Noto Sans CJK JP'; text-anchor: start; fill: #323a48" x="50" y="339.937083" transform="rotate(-0 50 339.937083)">5 Declarative Graph Solvers</text>
    </g>
   </g>
   <g id="patch_32">
    <path d="M 464.666667 337.333333 
L 464.666667 332.893333 
Q 464.666667 326.893333 470.666667 326.893333 
L 606 326.893333 
Q 612 326.893333 612 332.893333 
L 612 341.773333 
Q 612 347.773333 606 347.773333 
L 470.666667 347.773333 
Q 464.666667 347.773333 464.666667 341.773333 
z
" clip-path="url(#pe9bfb2d8ab)" style="fill: #2a989a; fill-opacity: 0.28; stroke: #2a989a; stroke-opacity: 0.5; stroke-width: 0.8; stroke-linejoin: miter"/>
   </g>
   <g id="patch_33">
    <path d="M 464.666667 337.333333 
L 464.666667 332.893333 
Q 464.666667 326.893333 470.666667 326.893333 
L 495.5 326.893333 
Q 501.5 326.893333 501.5 332.893333 
L 501.5 341.773333 
Q 501.5 347.773333 495.5 347.773333 
L 470.666667 347.773333 
Q 464.666667 347.773333 464.666667 341.773333 
z
" clip-path="url(#pe9bfb2d8ab)" style="fill: #2a989a"/>
   </g>
   <g id="text_17">
    <g clip-path="url(#pe9bfb2d8ab)">
     <text style="font-size: 7.2px; font-family: 'drawlib-cjk-japanese-noto-sans-bold', 'Noto Sans CJK JP'; text-anchor: middle; fill: #ffffff" x="483.083333" y="340.069333" transform="rotate(-0 483.083333 340.069333)">25%</text>
    </g>
   </g>
   <g id="patch_34">
    <path d="M 40 391.333333 
L 680 391.333333 
" clip-path="url(#pe9bfb2d8ab)" style="fill: none; stroke-dasharray: 5.55,2.4; stroke-dashoffset: 0; stroke: #8c98aa; stroke-width: 1.5; stroke-linecap: round"/>
   </g>
   <g id="text_18">
    <g clip-path="url(#pe9bfb2d8ab)">
     <text style="font-size: 8px; font-family: 'drawlib-cjk-japanese-noto-sans-regular', 'Noto Sans CJK JP'; text-anchor: start; fill: #323a48" x="50" y="375.853333" transform="rotate(-0 50 375.853333)">3. Slide Stage &amp; Documentation CLI</text>
    </g>
   </g>
   <g id="patch_35">
    <path d="M 40 427.333333 
L 680 427.333333 
" clip-path="url(#pe9bfb2d8ab)" style="fill: none; stroke-dasharray: 5.55,2.4; stroke-dashoffset: 0; stroke: #8c98aa; stroke-width: 1.5; stroke-linecap: round"/>
   </g>
   <g id="text_19">
    <g clip-path="url(#pe9bfb2d8ab)">
     <text style="font-size: 8px; font-family: 'drawlib-cjk-japanese-noto-sans-regular', 'Noto Sans CJK JP'; text-anchor: start; fill: #323a48" x="50" y="412.373333" transform="rotate(-0 50 412.373333)">Dual-Window Presenter View</text>
    </g>
   </g>
   <g id="patch_36">
    <path d="M 510 409.333333 
L 510 404.893333 
Q 510 398.893333 516 398.893333 
L 640 398.893333 
Q 646 398.893333 646 404.893333 
L 646 413.773333 
Q 646 419.773333 640 419.773333 
L 516 419.773333 
Q 510 419.773333 510 413.773333 
z
" clip-path="url(#pe9bfb2d8ab)" style="fill: #e8f2ff; stroke: #7891f2; stroke-width: 1.5; stroke-linejoin: miter"/>
   </g>
   <g id="patch_37">
    <path d="M 40 463.333333 
L 40 427.333333 
L 680 427.333333 
L 680 463.333333 
z
" clip-path="url(#pe9bfb2d8ab)" style="fill: #bac4d2; stroke: #5f6b7d; stroke-width: 0.75; stroke-linejoin: miter"/>
   </g>
   <g id="patch_38">
    <path d="M 40 463.333333 
L 680 463.333333 
" clip-path="url(#pe9bfb2d8ab)" style="fill: none; stroke-dasharray: 5.55,2.4; stroke-dashoffset: 0; stroke: #8c98aa; stroke-width: 1.5; stroke-linecap: round"/>
   </g>
   <g id="text_20">
    <g clip-path="url(#pe9bfb2d8ab)">
     <text style="font-size: 8px; font-family: 'drawlib-cjk-japanese-noto-sans-regular', 'Noto Sans CJK JP'; text-anchor: start; fill: #323a48" x="50" y="448.373333" transform="rotate(-0 50 448.373333)">GA Release v2.0</text>
    </g>
   </g>
   <g id="patch_39">
    <path d="M 645.633333 445.333333 
L 657.333333 433.633333 
L 669.033333 445.333333 
L 657.333333 457.033333 
z
" clip-path="url(#pe9bfb2d8ab)" style="fill: #4862da"/>
   </g>
   <g id="patch_40">
    <path d="M 351.333333 157.333333 
L 363.333333 157.333333 
" clip-path="url(#pe9bfb2d8ab)" style="fill: none; stroke: #323a48; stroke-width: 1.5; stroke-linecap: round"/>
   </g>
   <g id="patch_41">
    <path d="M 363.333333 157.333333 
L 363.333333 175.333333 
" clip-path="url(#pe9bfb2d8ab)" style="fill: none; stroke: #323a48; stroke-width: 1.5; stroke-linecap: round"/>
   </g>
   <g id="patch_42">
    <path d="M 363.333333 175.333333 
L 287.333333 175.333333 
" clip-path="url(#pe9bfb2d8ab)" style="fill: none; stroke: #323a48; stroke-width: 1.5; stroke-linecap: round"/>
   </g>
   <g id="patch_43">
    <path d="M 287.333333 175.333333 
L 287.333333 193.333333 
" clip-path="url(#pe9bfb2d8ab)" style="fill: none; stroke: #323a48; stroke-width: 1.5; stroke-linecap: round"/>
   </g>
   <g id="patch_44">
    <path d="M 287.333333 193.333333 
L 304.322949 193.333333 
" clip-path="url(#pe9bfb2d8ab)" style="fill: none; stroke: #323a48; stroke-width: 1.5; stroke-linecap: round"/>
    <path d="M 296.322949 189.333333 
L 304.322949 193.333333 
L 296.322949 197.333333 
" clip-path="url(#pe9bfb2d8ab)" style="fill: none; stroke: #323a48; stroke-width: 1.5; stroke-linecap: round"/>
   </g>
   <g id="patch_45">
    <path d="M 453.333333 193.333333 
L 465.333333 193.333333 
" clip-path="url(#pe9bfb2d8ab)" style="fill: none; stroke: #323a48; stroke-width: 1.5; stroke-linecap: round"/>
   </g>
   <g id="patch_46">
    <path d="M 465.333333 193.333333 
L 465.333333 247.333333 
" clip-path="url(#pe9bfb2d8ab)" style="fill: none; stroke: #323a48; stroke-width: 1.5; stroke-linecap: round"/>
   </g>
   <g id="patch_47">
    <path d="M 465.333333 247.333333 
L 333.333333 247.333333 
" clip-path="url(#pe9bfb2d8ab)" style="fill: none; stroke: #323a48; stroke-width: 1.5; stroke-linecap: round"/>
   </g>
   <g id="patch_48">
    <path d="M 333.333333 247.333333 
L 333.333333 301.333333 
" clip-path="url(#pe9bfb2d8ab)" style="fill: none; stroke: #323a48; stroke-width: 1.5; stroke-linecap: round"/>
   </g>
   <g id="patch_49">
    <path d="M 333.333333 301.333333 
L 360.989616 301.333333 
" clip-path="url(#pe9bfb2d8ab)" style="fill: none; stroke: #323a48; stroke-width: 1.5; stroke-linecap: round"/>
    <path d="M 352.989616 297.333333 
L 360.989616 301.333333 
L 352.989616 305.333333 
" clip-path="url(#pe9bfb2d8ab)" style="fill: none; stroke: #323a48; stroke-width: 1.5; stroke-linecap: round"/>
   </g>
   <g id="patch_50">
    <path d="M 521.333333 301.333333 
L 533.333333 301.333333 
" clip-path="url(#pe9bfb2d8ab)" style="fill: none; stroke: #323a48; stroke-width: 1.5; stroke-linecap: round"/>
   </g>
   <g id="patch_51">
    <path d="M 533.333333 301.333333 
L 533.333333 319.333333 
" clip-path="url(#pe9bfb2d8ab)" style="fill: none; stroke: #323a48; stroke-width: 1.5; stroke-linecap: round"/>
   </g>
   <g id="patch_52">
    <path d="M 533.333333 319.333333 
L 446 319.333333 
" clip-path="url(#pe9bfb2d8ab)" style="fill: none; stroke: #323a48; stroke-width: 1.5; stroke-linecap: round"/>
   </g>
   <g id="patch_53">
    <path d="M 446 319.333333 
L 446 337.333333 
" clip-path="url(#pe9bfb2d8ab)" style="fill: none; stroke: #323a48; stroke-width: 1.5; stroke-linecap: round"/>
   </g>
   <g id="patch_54">
    <path d="M 446 337.333333 
L 462.989616 337.333333 
" clip-path="url(#pe9bfb2d8ab)" style="fill: none; stroke: #323a48; stroke-width: 1.5; stroke-linecap: round"/>
    <path d="M 454.989616 333.333333 
L 462.989616 337.333333 
L 454.989616 341.333333 
" clip-path="url(#pe9bfb2d8ab)" style="fill: none; stroke: #323a48; stroke-width: 1.5; stroke-linecap: round"/>
   </g>
   <g id="patch_55">
    <path d="M 612 337.333333 
L 624 337.333333 
" clip-path="url(#pe9bfb2d8ab)" style="fill: none; stroke: #323a48; stroke-width: 1.5; stroke-linecap: round"/>
   </g>
   <g id="patch_56">
    <path d="M 624 337.333333 
L 624 373.333333 
" clip-path="url(#pe9bfb2d8ab)" style="fill: none; stroke: #323a48; stroke-width: 1.5; stroke-linecap: round"/>
   </g>
   <g id="patch_57">
    <path d="M 624 373.333333 
L 491.333333 373.333333 
" clip-path="url(#pe9bfb2d8ab)" style="fill: none; stroke: #323a48; stroke-width: 1.5; stroke-linecap: round"/>
   </g>
   <g id="patch_58">
    <path d="M 491.333333 373.333333 
L 491.333333 409.333333 
" clip-path="url(#pe9bfb2d8ab)" style="fill: none; stroke: #323a48; stroke-width: 1.5; stroke-linecap: round"/>
   </g>
   <g id="patch_59">
    <path d="M 491.333333 409.333333 
L 508.322949 409.333333 
" clip-path="url(#pe9bfb2d8ab)" style="fill: none; stroke: #323a48; stroke-width: 1.5; stroke-linecap: round"/>
    <path d="M 500.322949 405.333333 
L 508.322949 409.333333 
L 500.322949 413.333333 
" clip-path="url(#pe9bfb2d8ab)" style="fill: none; stroke: #323a48; stroke-width: 1.5; stroke-linecap: round"/>
   </g>
   <g id="patch_60">
    <path d="M 436.333333 103.333333 
L 436.333333 463.333333 
" clip-path="url(#pe9bfb2d8ab)" style="fill: none; stroke-dasharray: 5.55,2.4; stroke-dashoffset: 0; stroke: #323a48; stroke-width: 1.5; stroke-linecap: round"/>
   </g>
   <g id="patch_61">
    <path d="M 411.333333 112.666667 
L 411.333333 108.666667 
Q 411.333333 104.666667 415.333333 104.666667 
L 457.333333 104.666667 
Q 461.333333 104.666667 461.333333 108.666667 
L 461.333333 116.666667 
Q 461.333333 120.666667 457.333333 120.666667 
L 415.333333 120.666667 
Q 411.333333 120.666667 411.333333 116.666667 
z
" clip-path="url(#pe9bfb2d8ab)" style="fill: #323a48"/>
   </g>
   <g id="text_21">
    <g clip-path="url(#pe9bfb2d8ab)">
     <text style="font-size: 8px; font-family: 'drawlib-cjk-japanese-noto-sans-regular', 'Noto Sans CJK JP'; text-anchor: middle; fill: #ffffff" x="436.333333" y="115.250417" transform="rotate(-0 436.333333 115.250417)">Today</text>
    </g>
   </g>
  </g>
 </g>
 <defs>
  <clipPath id="pe9bfb2d8ab">
   <rect x="0" y="0" width="720" height="560"/>
  </clipPath>
 </defs>
<!-- drawlib-svg-fonts: [{"family":"drawlib-cjk-japanese-noto-sans-bold","rel_path":"_assets/fonts/cjk_japanese_noto_sans/bold.otf","src":"builtin:fonts/cjk_japanese_noto_sans/bold.otf","format":"opentype"},{"family":"drawlib-cjk-japanese-noto-sans-regular","rel_path":"_assets/fonts/cjk_japanese_noto_sans/regular.otf","src":"builtin:fonts/cjk_japanese_noto_sans/regular.otf","format":"opentype"}] -->
</svg>
