<?xml version="1.0" encoding="utf-8" standalone="no"?>
<!DOCTYPE svg PUBLIC "-//W3C//DTD SVG 1.1//EN"
  "http://www.w3.org/Graphics/SVG/1.1/DTD/svg11.dtd">
<svg xmlns:xlink="http://www.w3.org/1999/xlink" width="720pt" height="257.727273pt" viewBox="0 0 720 257.727273" xmlns="http://www.w3.org/2000/svg" version="1.1">
 <metadata>
  <rdf:RDF xmlns:dc="http://purl.org/dc/elements/1.1/" xmlns:cc="http://creativecommons.org/ns#" xmlns:rdf="http://www.w3.org/1999/02/22-rdf-syntax-ns#">
   <cc:Work>
    <dc:type rdf:resource="http://purl.org/dc/dcmitype/StillImage"/>
    <dc:format>image/svg+xml</dc:format>
    <dc:creator>
     <cc:Agent>
      <dc:title>Matplotlib v3.11.2, https://matplotlib.org/</dc:title>
     </cc:Agent>
    </dc:creator>
   </cc:Work>
  </rdf:RDF>
 </metadata>
 <defs>
  <style type="text/css">*{stroke-linejoin: round; stroke-linecap: butt}</style>
 </defs>
 <g id="figure_1">
  <g id="patch_1">
   <path d="M 0 257.727273 
L 720 257.727273 
L 720 0 
L 0 0 
z
" style="fill: #ffffff"/>
  </g>
  <g id="axes_1">
   <g id="patch_2">
    <path d="M 135 249.545455 
L 22.5 249.545455 
Q 12.272727 249.545455 12.272727 239.318182 
L 12.272727 18.409091 
Q 12.272727 8.181818 22.5 8.181818 
L 247.5 8.181818 
Q 257.727273 8.181818 257.727273 18.409091 
L 257.727273 239.318182 
Q 257.727273 249.545455 247.5 249.545455 
z
" clip-path="url(#p3b2b8627c4)" style="fill: #efefef; stroke: #cccccc; stroke-width: 1.5; stroke-linejoin: miter"/>
   </g>
   <g id="text_1">
    <g clip-path="url(#p3b2b8627c4)">
     <text style="font-size: 14px; font-family: 'drawlib-cjk-japanese-noto-sans-bold', 'Noto Sans CJK JP'; text-anchor: middle" x="135" y="36.001818" transform="rotate(-0 135 36.001818)">Attack Fleet Breakdown</text>
    </g>
   </g>
   <g id="patch_3">
    <path d="M 133.03331 148.460398 
C 141.187925 151.109993 149.820904 151.960267 158.335741 150.95247 
C 166.850578 149.944672 175.046534 147.102562 182.357301 142.622519 
C 189.668068 138.142475 195.921293 132.130115 200.684902 125.000871 
C 205.448511 117.871626 208.610202 109.793569 209.951513 101.324863 
C 211.292824 92.856156 210.782135 84.196451 208.454731 75.944101 
C 206.127327 67.69175 202.038078 60.041303 196.469536 53.521377 
C 190.900993 47.001451 183.984435 41.765754 176.197771 38.176053 
C 168.411106 34.586351 159.937906 32.727273 151.363636 32.727273 
L 151.363636 65.945455 
C 155.136315 65.945455 158.864523 66.763449 162.290656 68.342918 
C 165.716788 69.922386 168.760073 72.226093 171.210232 75.09486 
C 173.660391 77.963628 175.45966 81.329824 176.483718 84.960859 
C 177.507776 88.591893 177.732479 92.402163 177.142302 96.128394 
C 176.552125 99.854625 175.160981 103.40897 173.064993 106.545838 
C 170.969005 109.682705 168.217586 112.328144 165.000849 114.299363 
C 161.784112 116.270582 158.177891 117.52111 154.431362 117.964541 
C 150.684834 118.407972 146.886323 118.033851 143.298293 116.86803 
z
" clip-path="url(#p3b2b8627c4)" style="fill: #4285f4"/>
   </g>
   <g id="text_2">
    <g clip-path="url(#p3b2b8627c4)">
     <text style="font-size: 11px; font-family: 'drawlib-cjk-japanese-noto-sans-bold', 'Noto Sans CJK JP'; text-anchor: middle; fill: #ffffff" x="193.546907" y="102.906628" transform="rotate(-0 193.546907 102.906628)">55.0%</text>
    </g>
   </g>
   <g id="patch_4">
    <path d="M 149.500407 32.756543 
C 135.546981 33.195047 122.186523 38.545612 111.787568 47.859693 
C 101.388612 57.173775 94.604259 69.866408 92.637233 83.68745 
C 90.670207 97.508492 93.644048 111.589921 101.031553 123.435391 
C 108.419059 135.280861 119.756262 144.146423 133.03331 148.460398 
L 143.298293 116.86803 
C 137.456391 114.969881 132.468022 111.069033 129.21752 105.857026 
C 125.967017 100.64502 124.658528 94.449191 125.524019 88.367932 
C 126.38951 82.286674 129.374626 76.701916 133.950166 72.60372 
C 138.525707 68.505524 144.404308 66.151275 150.543816 65.958333 
z
" clip-path="url(#p3b2b8627c4)" style="fill: #f57c00"/>
   </g>
   <g id="text_3">
    <g clip-path="url(#p3b2b8627c4)">
     <text style="font-size: 11px; font-family: 'drawlib-cjk-japanese-noto-sans-bold', 'Noto Sans CJK JP'; text-anchor: middle; fill: #ffffff" x="109.080626" y="90.207691" transform="rotate(-0 109.080626 90.207691)">44.5%</text>
    </g>
   </g>
   <g id="patch_5">
    <path d="M 151.363636 32.727273 
C 151.053045 32.727273 150.742459 32.729712 150.431907 32.734591 
C 150.121354 32.739469 149.810845 32.746787 149.500407 32.756543 
L 150.543816 65.958333 
C 150.680408 65.954041 150.817032 65.950821 150.953675 65.948674 
C 151.090319 65.946528 151.226976 65.945455 151.363636 65.945455 
z
" clip-path="url(#p3b2b8627c4)" style="fill: #674ea7"/>
   </g>
   <g id="text_4">
    <g clip-path="url(#p3b2b8627c4)">
     <text style="font-size: 11px; font-family: 'drawlib-cjk-japanese-noto-sans-bold', 'Noto Sans CJK JP'" transform="translate(136.937308 90.153111)">300M</text>
    </g>
    <g clip-path="url(#p3b2b8627c4)">
     <text style="font-size: 11px; font-family: 'drawlib-cjk-japanese-noto-sans-bold', 'Noto Sans CJK JP'" transform="translate(138.900121 101.153111)">/Day</text>
    </g>
   </g>
   <g id="patch_6">
    <path d="M 31.5 192.681818 
L 27.818182 192.681818 
Q 26.590909 192.681818 26.590909 191.454545 
L 26.590909 189 
Q 26.590909 187.772727 27.818182 187.772727 
L 35.181818 187.772727 
Q 36.409091 187.772727 36.409091 189 
L 36.409091 191.454545 
Q 36.409091 192.681818 35.181818 192.681818 
z
" clip-path="url(#p3b2b8627c4)" style="fill: #4285f4"/>
   </g>
   <g id="text_5">
    <g clip-path="url(#p3b2b8627c4)">
     <text style="font-size: 11px; font-family: 'drawlib-cjk-japanese-noto-sans-bold', 'Noto Sans CJK JP'; text-anchor: start; fill: #434343" x="39.681818" y="193.956101" transform="rotate(-0 39.681818 193.956101)">Fleet A: Cloud ASNs (55%)</text>
    </g>
   </g>
   <g id="patch_7">
    <path d="M 31.5 208.431818 
L 27.818182 208.431818 
Q 26.590909 208.431818 26.590909 207.204545 
L 26.590909 204.75 
Q 26.590909 203.522727 27.818182 203.522727 
L 35.181818 203.522727 
Q 36.409091 203.522727 36.409091 204.75 
L 36.409091 207.204545 
Q 36.409091 208.431818 35.181818 208.431818 
z
" clip-path="url(#p3b2b8627c4)" style="fill: #f57c00"/>
   </g>
   <g id="text_6">
    <g clip-path="url(#p3b2b8627c4)">
     <text style="font-size: 11px; font-family: 'drawlib-cjk-japanese-noto-sans-bold', 'Noto Sans CJK JP'; text-anchor: start; fill: #434343" x="39.681818" y="209.706101" transform="rotate(-0 39.681818 209.706101)">Fleet B: Home HTTP/1.1 (44.5%)</text>
    </g>
   </g>
   <g id="patch_8">
    <path d="M 31.5 224.181818 
L 27.818182 224.181818 
Q 26.590909 224.181818 26.590909 222.954545 
L 26.590909 220.5 
Q 26.590909 219.272727 27.818182 219.272727 
L 35.181818 219.272727 
Q 36.409091 219.272727 36.409091 220.5 
L 36.409091 222.954545 
Q 36.409091 224.181818 35.181818 224.181818 
z
" clip-path="url(#p3b2b8627c4)" style="fill: #674ea7"/>
   </g>
   <g id="text_7">
    <g clip-path="url(#p3b2b8627c4)">
     <text style="font-size: 11px; font-family: 'drawlib-cjk-japanese-noto-sans-bold', 'Noto Sans CJK JP'; text-anchor: start; fill: #434343" x="39.681818" y="225.456101" transform="rotate(-0 39.681818 225.456101)">Real Users: HTTP/2+3 (0.5%)</text>
    </g>
   </g>
   <g id="patch_9">
    <path d="M 492.954545 249.545455 
L 284.318182 249.545455 
Q 274.090909 249.545455 274.090909 239.318182 
L 274.090909 18.409091 
Q 274.090909 8.181818 284.318182 8.181818 
L 701.590909 8.181818 
Q 711.818182 8.181818 711.818182 18.409091 
L 711.818182 239.318182 
Q 711.818182 249.545455 701.590909 249.545455 
z
" clip-path="url(#p3b2b8627c4)" style="fill: #efefef; stroke: #cccccc; stroke-width: 1.5; stroke-linejoin: miter"/>
   </g>
   <g id="text_8">
    <g clip-path="url(#p3b2b8627c4)">
     <text style="font-size: 14px; font-family: 'drawlib-cjk-japanese-noto-sans-bold', 'Noto Sans CJK JP'; text-anchor: middle" x="492.954545" y="35.141037" transform="rotate(-0 492.954545 35.141037)">Forensic Fingerprint Comparison: Bot Fleets vs. Real Users</text>
    </g>
   </g>
   <g id="patch_10">
    <path d="M 284.318182 78.545455 
L 284.318182 49.090909 
L 362.045455 49.090909 
L 362.045455 78.545455 
z
" clip-path="url(#p3b2b8627c4)" style="fill: #f8fafc"/>
   </g>
   <g id="text_9">
    <g clip-path="url(#p3b2b8627c4)">
     <text style="font-size: 11px; font-family: 'drawlib-cjk-japanese-noto-sans-regular', 'Noto Sans CJK JP'; text-anchor: middle; fill: #434343" x="323.181818" y="67.283182" transform="rotate(-0 323.181818 67.283182)">Signal</text>
    </g>
   </g>
   <g id="patch_11">
    <path d="M 362.045455 78.545455 
L 362.045455 49.090909 
L 470.454545 49.090909 
L 470.454545 78.545455 
z
" clip-path="url(#p3b2b8627c4)" style="fill: #f8fafc"/>
   </g>
   <g id="text_10">
    <g clip-path="url(#p3b2b8627c4)">
     <text style="font-size: 11px; font-family: 'drawlib-cjk-japanese-noto-sans-regular', 'Noto Sans CJK JP'; text-anchor: middle; fill: #434343" x="416.25" y="67.998182" transform="rotate(-0 416.25 67.998182)">Fleet A: Cloud VMs</text>
    </g>
   </g>
   <g id="patch_12">
    <path d="M 470.454545 78.545455 
L 470.454545 49.090909 
L 595.227273 49.090909 
L 595.227273 78.545455 
z
" clip-path="url(#p3b2b8627c4)" style="fill: #f8fafc"/>
   </g>
   <g id="text_11">
    <g clip-path="url(#p3b2b8627c4)">
     <text style="font-size: 11px; font-family: 'drawlib-cjk-japanese-noto-sans-regular', 'Noto Sans CJK JP'; text-anchor: middle; fill: #434343" x="532.840909" y="67.998182" transform="rotate(-0 532.840909 67.998182)">Fleet B: Home Proxies</text>
    </g>
   </g>
   <g id="patch_13">
    <path d="M 595.227273 78.545455 
L 595.227273 49.090909 
L 701.590909 49.090909 
L 701.590909 78.545455 
z
" clip-path="url(#p3b2b8627c4)" style="fill: #f8fafc"/>
   </g>
   <g id="text_12">
    <g clip-path="url(#p3b2b8627c4)">
     <text style="font-size: 11px; font-family: 'drawlib-cjk-japanese-noto-sans-regular', 'Noto Sans CJK JP'; text-anchor: middle; fill: #434343" x="648.409091" y="67.580526" transform="rotate(-0 648.409091 67.580526)">Real Users (0.5%)</text>
    </g>
   </g>
   <g id="patch_14">
    <path d="M 284.318182 108 
L 284.318182 78.545455 
L 362.045455 78.545455 
L 362.045455 108 
z
" clip-path="url(#p3b2b8627c4)" style="fill: #ffffff"/>
   </g>
   <g id="text_13">
    <g clip-path="url(#p3b2b8627c4)">
     <text style="font-size: 11px; font-family: 'drawlib-cjk-japanese-noto-sans-regular', 'Noto Sans CJK JP'; text-anchor: middle; fill: #434343" x="323.181818" y="97.452727" transform="rotate(-0 323.181818 97.452727)">Network ASN</text>
    </g>
   </g>
   <g id="patch_15">
    <path d="M 362.045455 108 
L 362.045455 78.545455 
L 470.454545 78.545455 
L 470.454545 108 
z
" clip-path="url(#p3b2b8627c4)" style="fill: #ffffff"/>
   </g>
   <g id="text_14">
    <g clip-path="url(#p3b2b8627c4)">
     <text style="font-size: 11px; font-family: 'drawlib-cjk-japanese-noto-sans-regular', 'Noto Sans CJK JP'; text-anchor: middle; fill: #434343" x="416.25" y="97.127884" transform="rotate(-0 416.25 97.127884)">AWS / GCP / OVH</text>
    </g>
   </g>
   <g id="patch_16">
    <path d="M 470.454545 108 
L 470.454545 78.545455 
L 595.227273 78.545455 
L 595.227273 108 
z
" clip-path="url(#p3b2b8627c4)" style="fill: #ffffff"/>
   </g>
   <g id="text_15">
    <g clip-path="url(#p3b2b8627c4)">
     <text style="font-size: 11px; font-family: 'drawlib-cjk-japanese-noto-sans-regular', 'Noto Sans CJK JP'; text-anchor: middle; fill: #434343" x="532.840909" y="97.452727" transform="rotate(-0 532.840909 97.452727)">JP Home Fiber ISPs</text>
    </g>
   </g>
   <g id="patch_17">
    <path d="M 595.227273 108 
L 595.227273 78.545455 
L 701.590909 78.545455 
L 701.590909 108 
z
" clip-path="url(#p3b2b8627c4)" style="fill: #ffffff"/>
   </g>
   <g id="text_16">
    <g clip-path="url(#p3b2b8627c4)">
     <text style="font-size: 11px; font-family: 'drawlib-cjk-japanese-noto-sans-regular', 'Noto Sans CJK JP'; text-anchor: middle; fill: #434343" x="648.409091" y="97.452727" transform="rotate(-0 648.409091 97.452727)">JP Consumer ISPs</text>
    </g>
   </g>
   <g id="patch_18">
    <path d="M 284.318182 137.454545 
L 284.318182 108 
L 362.045455 108 
L 362.045455 137.454545 
z
" clip-path="url(#p3b2b8627c4)" style="fill: #f8fafc"/>
   </g>
   <g id="text_17">
    <g clip-path="url(#p3b2b8627c4)">
     <text style="font-size: 11px; font-family: 'drawlib-cjk-japanese-noto-sans-regular', 'Noto Sans CJK JP'; text-anchor: middle; fill: #434343" x="323.181818" y="126.307429" transform="rotate(-0 323.181818 126.307429)">Rate per IP</text>
    </g>
   </g>
   <g id="patch_19">
    <path d="M 362.045455 137.454545 
L 362.045455 108 
L 470.454545 108 
L 470.454545 137.454545 
z
" clip-path="url(#p3b2b8627c4)" style="fill: #f8fafc"/>
   </g>
   <g id="text_18">
    <g clip-path="url(#p3b2b8627c4)">
     <text style="font-size: 11px; font-family: 'drawlib-cjk-japanese-noto-sans-regular', 'Noto Sans CJK JP'; text-anchor: middle; fill: #434343" x="416.25" y="126.489616" transform="rotate(-0 416.25 126.489616)">Burst (20–100 / 10s)</text>
    </g>
   </g>
   <g id="patch_20">
    <path d="M 470.454545 137.454545 
L 470.454545 108 
L 595.227273 108 
L 595.227273 137.454545 
z
" clip-path="url(#p3b2b8627c4)" style="fill: #f8fafc"/>
   </g>
   <g id="text_19">
    <g clip-path="url(#p3b2b8627c4)">
     <text style="font-size: 11px; font-family: 'drawlib-cjk-japanese-noto-sans-regular', 'Noto Sans CJK JP'; text-anchor: middle; fill: #434343" x="532.840909" y="126.489616" transform="rotate(-0 532.840909 126.489616)">Stealth (6–8 / 10s)</text>
    </g>
   </g>
   <g id="patch_21">
    <path d="M 595.227273 137.454545 
L 595.227273 108 
L 701.590909 108 
L 701.590909 137.454545 
z
" clip-path="url(#p3b2b8627c4)" style="fill: #f8fafc"/>
   </g>
   <g id="text_20">
    <g clip-path="url(#p3b2b8627c4)">
     <text style="font-size: 11px; font-family: 'drawlib-cjk-japanese-noto-sans-regular', 'Noto Sans CJK JP'; text-anchor: middle; fill: #434343" x="648.409091" y="126.307429" transform="rotate(-0 648.409091 126.307429)">1–3 req / min</text>
    </g>
   </g>
   <g id="patch_22">
    <path d="M 284.318182 166.909091 
L 284.318182 137.454545 
L 362.045455 137.454545 
L 362.045455 166.909091 
z
" clip-path="url(#p3b2b8627c4)" style="fill: #ffffff"/>
   </g>
   <g id="text_21">
    <g clip-path="url(#p3b2b8627c4)">
     <text style="font-size: 11px; font-family: 'drawlib-cjk-japanese-noto-sans-regular', 'Noto Sans CJK JP'; text-anchor: middle; fill: #434343" x="323.181818" y="155.646818" transform="rotate(-0 323.181818 155.646818)">User-Agent</text>
    </g>
   </g>
   <g id="patch_23">
    <path d="M 362.045455 166.909091 
L 362.045455 137.454545 
L 470.454545 137.454545 
L 470.454545 166.909091 
z
" clip-path="url(#p3b2b8627c4)" style="fill: #ffffff"/>
   </g>
   <g id="text_22">
    <g clip-path="url(#p3b2b8627c4)">
     <text style="font-size: 11px; font-family: 'drawlib-cjk-japanese-noto-sans-regular', 'Noto Sans CJK JP'; text-anchor: middle; fill: #434343" x="416.25" y="155.734474" transform="rotate(-0 416.25 155.734474)">python / Go / Old UA</text>
    </g>
   </g>
   <g id="patch_24">
    <path d="M 470.454545 166.909091 
L 470.454545 137.454545 
L 595.227273 137.454545 
L 595.227273 166.909091 
z
" clip-path="url(#p3b2b8627c4)" style="fill: #fce8e6"/>
   </g>
   <g id="text_23">
    <g clip-path="url(#p3b2b8627c4)">
     <text style="font-size: 11px; font-family: 'drawlib-cjk-japanese-noto-sans-bold', 'Noto Sans CJK JP'; text-anchor: middle; fill: #f57c00" x="532.840909" y="155.839318" transform="rotate(-0 532.840909 155.839318)">Spoofed Chrome 130</text>
    </g>
   </g>
   <g id="patch_25">
    <path d="M 595.227273 166.909091 
L 595.227273 137.454545 
L 701.590909 137.454545 
L 701.590909 166.909091 
z
" clip-path="url(#p3b2b8627c4)" style="fill: #ffffff"/>
   </g>
   <g id="text_24">
    <g clip-path="url(#p3b2b8627c4)">
     <text style="font-size: 11px; font-family: 'drawlib-cjk-japanese-noto-sans-regular', 'Noto Sans CJK JP'; text-anchor: middle; fill: #434343" x="648.409091" y="156.036974" transform="rotate(-0 648.409091 156.036974)">Chrome / Safari</text>
    </g>
   </g>
   <g id="patch_26">
    <path d="M 284.318182 196.363636 
L 284.318182 166.909091 
L 362.045455 166.909091 
L 362.045455 196.363636 
z
" clip-path="url(#p3b2b8627c4)" style="fill: #f8fafc"/>
   </g>
   <g id="text_25">
    <g clip-path="url(#p3b2b8627c4)">
     <text style="font-size: 11px; font-family: 'drawlib-cjk-japanese-noto-sans-regular', 'Noto Sans CJK JP'; text-anchor: middle; fill: #434343" x="323.181818" y="185.816364" transform="rotate(-0 323.181818 185.816364)">HTTP Version</text>
    </g>
   </g>
   <g id="patch_27">
    <path d="M 362.045455 196.363636 
L 362.045455 166.909091 
L 470.454545 166.909091 
L 470.454545 196.363636 
z
" clip-path="url(#p3b2b8627c4)" style="fill: #f8fafc"/>
   </g>
   <g id="text_26">
    <g clip-path="url(#p3b2b8627c4)">
     <text style="font-size: 11px; font-family: 'drawlib-cjk-japanese-noto-sans-regular', 'Noto Sans CJK JP'; text-anchor: middle; fill: #434343" x="416.25" y="185.49152" transform="rotate(-0 416.25 185.49152)">HTTP/1.1 or HTTP/2</text>
    </g>
   </g>
   <g id="patch_28">
    <path d="M 470.454545 196.363636 
L 470.454545 166.909091 
L 595.227273 166.909091 
L 595.227273 196.363636 
z
" clip-path="url(#p3b2b8627c4)" style="fill: #fce8e6"/>
   </g>
   <g id="text_27">
    <g clip-path="url(#p3b2b8627c4)">
     <text style="font-size: 11px; font-family: 'drawlib-cjk-japanese-noto-sans-bold', 'Noto Sans CJK JP'; text-anchor: middle; fill: #f57c00" x="532.840909" y="185.481207" transform="rotate(-0 532.840909 185.481207)">HTTP/1.1 ONLY!</text>
    </g>
   </g>
   <g id="patch_29">
    <path d="M 595.227273 196.363636 
L 595.227273 166.909091 
L 701.590909 166.909091 
L 701.590909 196.363636 
z
" clip-path="url(#p3b2b8627c4)" style="fill: #f8fafc"/>
   </g>
   <g id="text_28">
    <g clip-path="url(#p3b2b8627c4)">
     <text style="font-size: 11px; font-family: 'drawlib-cjk-japanese-noto-sans-regular', 'Noto Sans CJK JP'; text-anchor: middle; fill: #434343" x="648.409091" y="185.49152" transform="rotate(-0 648.409091 185.49152)">HTTP/2 or HTTP/3</text>
    </g>
   </g>
   <g id="patch_30">
    <path d="M 284.318182 225.818182 
L 284.318182 196.363636 
L 362.045455 196.363636 
L 362.045455 225.818182 
z
" clip-path="url(#p3b2b8627c4)" style="fill: #ffffff"/>
   </g>
   <g id="text_29">
    <g clip-path="url(#p3b2b8627c4)">
     <text style="font-size: 11px; font-family: 'drawlib-cjk-japanese-noto-sans-regular', 'Noto Sans CJK JP'; text-anchor: middle; fill: #434343" x="323.181818" y="215.270909" transform="rotate(-0 323.181818 215.270909)">WAF Action</text>
    </g>
   </g>
   <g id="patch_31">
    <path d="M 362.045455 225.818182 
L 362.045455 196.363636 
L 470.454545 196.363636 
L 470.454545 225.818182 
z
" clip-path="url(#p3b2b8627c4)" style="fill: #ffffff"/>
   </g>
   <g id="text_30">
    <g clip-path="url(#p3b2b8627c4)">
     <text style="font-size: 11px; font-family: 'drawlib-cjk-japanese-noto-sans-regular', 'Noto Sans CJK JP'; text-anchor: middle; fill: #434343" x="416.25" y="214.555909" transform="rotate(-0 416.25 214.555909)">Block Hosting ASNs</text>
    </g>
   </g>
   <g id="patch_32">
    <path d="M 470.454545 225.818182 
L 470.454545 196.363636 
L 595.227273 196.363636 
L 595.227273 225.818182 
z
" clip-path="url(#p3b2b8627c4)" style="fill: #ffffff"/>
   </g>
   <g id="text_31">
    <g clip-path="url(#p3b2b8627c4)">
     <text style="font-size: 11px; font-family: 'drawlib-cjk-japanese-noto-sans-regular', 'Noto Sans CJK JP'; text-anchor: middle; fill: #434343" x="532.840909" y="214.946065" transform="rotate(-0 532.840909 214.946065)">Block HTTP/1.1</text>
    </g>
   </g>
   <g id="patch_33">
    <path d="M 595.227273 225.818182 
L 595.227273 196.363636 
L 701.590909 196.363636 
L 701.590909 225.818182 
z
" clip-path="url(#p3b2b8627c4)" style="fill: #ffffff"/>
   </g>
   <g id="text_32">
    <g clip-path="url(#p3b2b8627c4)">
     <text style="font-size: 11px; font-family: 'drawlib-cjk-japanese-noto-sans-regular', 'Noto Sans CJK JP'; text-anchor: middle; fill: #434343" x="648.409091" y="215.270909" transform="rotate(-0 648.409091 215.270909)">Zero-Friction Pass</text>
    </g>
   </g>
   <g id="patch_34">
    <path d="M 284.318182 49.090909 
L 284.318182 225.818182 
" clip-path="url(#p3b2b8627c4)" style="fill: none; stroke: #b7b7b7; stroke-width: 0.75; stroke-linecap: round"/>
   </g>
   <g id="patch_35">
    <path d="M 362.045455 49.090909 
L 362.045455 225.818182 
" clip-path="url(#p3b2b8627c4)" style="fill: none; stroke: #b7b7b7; stroke-width: 0.75; stroke-linecap: round"/>
   </g>
   <g id="patch_36">
    <path d="M 470.454545 49.090909 
L 470.454545 225.818182 
" clip-path="url(#p3b2b8627c4)" style="fill: none; stroke: #b7b7b7; stroke-width: 0.75; stroke-linecap: round"/>
   </g>
   <g id="patch_37">
    <path d="M 595.227273 49.090909 
L 595.227273 225.818182 
" clip-path="url(#p3b2b8627c4)" style="fill: none; stroke: #b7b7b7; stroke-width: 0.75; stroke-linecap: round"/>
   </g>
   <g id="patch_38">
    <path d="M 701.590909 49.090909 
L 701.590909 225.818182 
" clip-path="url(#p3b2b8627c4)" style="fill: none; stroke: #b7b7b7; stroke-width: 0.75; stroke-linecap: round"/>
   </g>
   <g id="patch_39">
    <path d="M 284.318182 49.090909 
L 701.590909 49.090909 
" clip-path="url(#p3b2b8627c4)" style="fill: none; stroke: #b7b7b7; stroke-width: 0.75; stroke-linecap: round"/>
   </g>
   <g id="patch_40">
    <path d="M 284.318182 78.545455 
L 701.590909 78.545455 
" clip-path="url(#p3b2b8627c4)" style="fill: none; stroke: #b7b7b7; stroke-width: 0.75; stroke-linecap: round"/>
   </g>
   <g id="patch_41">
    <path d="M 284.318182 108 
L 701.590909 108 
" clip-path="url(#p3b2b8627c4)" style="fill: none; stroke: #b7b7b7; stroke-width: 0.75; stroke-linecap: round"/>
   </g>
   <g id="patch_42">
    <path d="M 284.318182 137.454545 
L 701.590909 137.454545 
" clip-path="url(#p3b2b8627c4)" style="fill: none; stroke: #b7b7b7; stroke-width: 0.75; stroke-linecap: round"/>
   </g>
   <g id="patch_43">
    <path d="M 284.318182 166.909091 
L 701.590909 166.909091 
" clip-path="url(#p3b2b8627c4)" style="fill: none; stroke: #b7b7b7; stroke-width: 0.75; stroke-linecap: round"/>
   </g>
   <g id="patch_44">
    <path d="M 284.318182 196.363636 
L 701.590909 196.363636 
" clip-path="url(#p3b2b8627c4)" style="fill: none; stroke: #b7b7b7; stroke-width: 0.75; stroke-linecap: round"/>
   </g>
   <g id="patch_45">
    <path d="M 284.318182 225.818182 
L 701.590909 225.818182 
" clip-path="url(#p3b2b8627c4)" style="fill: none; stroke: #b7b7b7; stroke-width: 0.75; stroke-linecap: round"/>
   </g>
  </g>
 </g>
 <defs>
  <clipPath id="p3b2b8627c4">
   <rect x="0" y="0" width="720" height="257.727273"/>
  </clipPath>
 </defs>
<!-- drawlib-svg-fonts: [{"family":"drawlib-cjk-japanese-noto-sans-bold","rel_path":"_assets/fonts/cjk_japanese_noto_sans/bold.otf","src":"builtin:fonts/cjk_japanese_noto_sans/bold.otf","format":"opentype"},{"family":"drawlib-cjk-japanese-noto-sans-regular","rel_path":"_assets/fonts/cjk_japanese_noto_sans/regular.otf","src":"builtin:fonts/cjk_japanese_noto_sans/regular.otf","format":"opentype"}] -->
</svg>
