<?xml version="1.0" encoding="utf-8" standalone="no"?>
<!DOCTYPE svg PUBLIC "-//W3C//DTD SVG 1.1//EN"
  "http://www.w3.org/Graphics/SVG/1.1/DTD/svg11.dtd">
<svg xmlns:xlink="http://www.w3.org/1999/xlink" width="720pt" height="604.8pt" viewBox="0 0 720 604.8" xmlns="http://www.w3.org/2000/svg" version="1.1">
 <metadata>
  <rdf:RDF xmlns:dc="http://purl.org/dc/elements/1.1/" xmlns:cc="http://creativecommons.org/ns#" xmlns:rdf="http://www.w3.org/1999/02/22-rdf-syntax-ns#">
   <cc:Work>
    <dc:type rdf:resource="http://purl.org/dc/dcmitype/StillImage"/>
    <dc:date>2026-10-03T23:42:46.073314</dc:date>
    <dc:format>image/svg+xml</dc:format>
    <dc:creator>
     <cc:Agent>
      <dc:title>Matplotlib v3.10.9, https://matplotlib.org/</dc:title>
     </cc:Agent>
    </dc:creator>
   </cc:Work>
  </rdf:RDF>
 </metadata>
 <defs>
  <style type="text/css">*{stroke-linejoin: round; stroke-linecap: butt}</style>
 </defs>
 <g id="figure_1">
  <g id="patch_1">
   <path d="M 0 604.8 
L 720 604.8 
L 720 0 
L 0 0 
z
" style="fill: #ffffff"/>
  </g>
  <g id="axes_1">
   <g id="patch_2">
    <path d="M 28.8 129.6 
L 28.8 72 
Q 28.8 50.4 50.4 50.4 
L 669.6 50.4 
Q 691.2 50.4 691.2 72 
L 691.2 187.2 
Q 691.2 208.8 669.6 208.8 
L 50.4 208.8 
Q 28.8 208.8 28.8 187.2 
z
" clip-path="url(#p0d525d264d)" style="fill: #f8f9fa; stroke: #dce1eb; stroke-linejoin: miter"/>
   </g>
   <g id="patch_3">
    <path d="M 32.4 129.6 
L 32.4 81.36 
Q 32.4 74.16 39.6 74.16 
L 39.6 74.16 
Q 46.8 74.16 46.8 81.36 
L 46.8 177.84 
Q 46.8 185.04 39.6 185.04 
L 39.6 185.04 
Q 32.4 185.04 32.4 177.84 
z
" clip-path="url(#p0d525d264d)" style="fill: #1a73e8"/>
   </g>
   <g id="text_1">
    <g clip-path="url(#p0d525d264d)">
     <text style="font-size: 16px; font-family: 'DejaVu Sans', 'Bitstream Vera Sans', 'Computer Modern Sans Serif', 'Lucida Grande', 'Verdana', 'Geneva', 'Lucid', 'Arial', 'Helvetica', 'Avant Garde', sans-serif; text-anchor: start; fill: #1a73e8" x="86.4" y="134.26375" transform="rotate(-0 86.4 134.26375)">99.99%</text>
    </g>
   </g>
   <g id="text_2">
    <g clip-path="url(#p0d525d264d)">
     <text style="font-size: 11px; font-family: 'DejaVu Sans', 'Bitstream Vera Sans', 'Computer Modern Sans Serif', 'Lucida Grande', 'Verdana', 'Geneva', 'Lucid', 'Arial', 'Helvetica', 'Avant Garde', sans-serif; text-anchor: start; fill: #202124" x="316.8" y="111.227813" transform="rotate(-0 316.8 111.227813)">System Availability</text>
    </g>
   </g>
   <g id="text_3">
    <g clip-path="url(#p0d525d264d)">
     <text style="font-size: 8.5px; font-family: 'DejaVu Sans', 'Bitstream Vera Sans', 'Computer Modern Sans Serif', 'Lucida Grande', 'Verdana', 'Geneva', 'Lucid', 'Arial', 'Helvetica', 'Avant Garde', sans-serif; text-anchor: start; fill: #5f6368" x="316.8" y="157.213867" transform="rotate(-0 316.8 157.213867)">Tier-1 SLA production target</text>
    </g>
   </g>
   <g id="patch_4">
    <path d="M 28.8 302.4 
L 28.8 244.8 
Q 28.8 223.2 50.4 223.2 
L 669.6 223.2 
Q 691.2 223.2 691.2 244.8 
L 691.2 360 
Q 691.2 381.6 669.6 381.6 
L 50.4 381.6 
Q 28.8 381.6 28.8 360 
z
" clip-path="url(#p0d525d264d)" style="fill: #f8f9fa; stroke: #dce1eb; stroke-linejoin: miter"/>
   </g>
   <g id="patch_5">
    <path d="M 32.4 302.4 
L 32.4 254.16 
Q 32.4 246.96 39.6 246.96 
L 39.6 246.96 
Q 46.8 246.96 46.8 254.16 
L 46.8 350.64 
Q 46.8 357.84 39.6 357.84 
L 39.6 357.84 
Q 32.4 357.84 32.4 350.64 
z
" clip-path="url(#p0d525d264d)" style="fill: #34a853"/>
   </g>
   <g id="text_4">
    <g clip-path="url(#p0d525d264d)">
     <text style="font-size: 16px; font-family: 'DejaVu Sans', 'Bitstream Vera Sans', 'Computer Modern Sans Serif', 'Lucida Grande', 'Verdana', 'Geneva', 'Lucid', 'Arial', 'Helvetica', 'Avant Garde', sans-serif; text-anchor: start; fill: #34a853" x="86.4" y="307.06375" transform="rotate(-0 86.4 307.06375)">1.2s</text>
    </g>
   </g>
   <g id="text_5">
    <g clip-path="url(#p0d525d264d)">
     <text style="font-size: 11px; font-family: 'DejaVu Sans', 'Bitstream Vera Sans', 'Computer Modern Sans Serif', 'Lucida Grande', 'Verdana', 'Geneva', 'Lucid', 'Arial', 'Helvetica', 'Avant Garde', sans-serif; text-anchor: start; fill: #202124" x="316.8" y="284.006328" transform="rotate(-0 316.8 284.006328)">Fast Build Time</text>
    </g>
   </g>
   <g id="text_6">
    <g clip-path="url(#p0d525d264d)">
     <text style="font-size: 8.5px; font-family: 'DejaVu Sans', 'Bitstream Vera Sans', 'Computer Modern Sans Serif', 'Lucida Grande', 'Verdana', 'Geneva', 'Lucid', 'Arial', 'Helvetica', 'Avant Garde', sans-serif; text-anchor: start; fill: #5f6368" x="316.8" y="330.077617" transform="rotate(-0 316.8 330.077617)">Sub-second SQLite cache hit</text>
    </g>
   </g>
   <g id="patch_6">
    <path d="M 28.8 475.2 
L 28.8 417.6 
Q 28.8 396 50.4 396 
L 669.6 396 
Q 691.2 396 691.2 417.6 
L 691.2 532.8 
Q 691.2 554.4 669.6 554.4 
L 50.4 554.4 
Q 28.8 554.4 28.8 532.8 
z
" clip-path="url(#p0d525d264d)" style="fill: #f8f9fa; stroke: #dce1eb; stroke-linejoin: miter"/>
   </g>
   <g id="patch_7">
    <path d="M 32.4 475.2 
L 32.4 426.96 
Q 32.4 419.76 39.6 419.76 
L 39.6 419.76 
Q 46.8 419.76 46.8 426.96 
L 46.8 523.44 
Q 46.8 530.64 39.6 530.64 
L 39.6 530.64 
Q 32.4 530.64 32.4 523.44 
z
" clip-path="url(#p0d525d264d)" style="fill: #ea4335"/>
   </g>
   <g id="text_7">
    <g clip-path="url(#p0d525d264d)">
     <text style="font-size: 16px; font-family: 'DejaVu Sans', 'Bitstream Vera Sans', 'Computer Modern Sans Serif', 'Lucida Grande', 'Verdana', 'Geneva', 'Lucid', 'Arial', 'Helvetica', 'Avant Garde', sans-serif; text-anchor: start; fill: #ea4335" x="86.4" y="479.86375" transform="rotate(-0 86.4 479.86375)">100%</text>
    </g>
   </g>
   <g id="text_8">
    <g clip-path="url(#p0d525d264d)">
     <text style="font-size: 11px; font-family: 'DejaVu Sans', 'Bitstream Vera Sans', 'Computer Modern Sans Serif', 'Lucida Grande', 'Verdana', 'Geneva', 'Lucid', 'Arial', 'Helvetica', 'Avant Garde', sans-serif; text-anchor: start; fill: #202124" x="316.8" y="456.729844" transform="rotate(-0 316.8 456.729844)">Verified Coverage</text>
    </g>
   </g>
   <g id="text_9">
    <g clip-path="url(#p0d525d264d)">
     <text style="font-size: 8.5px; font-family: 'DejaVu Sans', 'Bitstream Vera Sans', 'Computer Modern Sans Serif', 'Lucida Grande', 'Verdana', 'Geneva', 'Lucid', 'Arial', 'Helvetica', 'Avant Garde', sans-serif; text-anchor: start; fill: #5f6368" x="316.8" y="502.813867" transform="rotate(-0 316.8 502.813867)">Unit and integration tests passing</text>
    </g>
   </g>
  </g>
 </g>
 <defs>
  <clipPath id="p0d525d264d">
   <rect x="0" y="0" width="720" height="604.8"/>
  </clipPath>
 </defs>
</svg>
