<?xml version="1.0" encoding="utf-8" standalone="no"?>
<!DOCTYPE svg PUBLIC "-//W3C//DTD SVG 1.1//EN"
  "http://www.w3.org/Graphics/SVG/1.1/DTD/svg11.dtd">
<svg xmlns:xlink="http://www.w3.org/1999/xlink" width="720pt" height="617.142857pt" viewBox="0 0 720 617.142857" xmlns="http://www.w3.org/2000/svg" version="1.1">
 <metadata>
  <rdf:RDF xmlns:dc="http://purl.org/dc/elements/1.1/" xmlns:cc="http://creativecommons.org/ns#" xmlns:rdf="http://www.w3.org/1999/02/22-rdf-syntax-ns#">
   <cc:Work>
    <dc:type rdf:resource="http://purl.org/dc/dcmitype/StillImage"/>
    <dc:format>image/svg+xml</dc:format>
    <dc:creator>
     <cc:Agent>
      <dc:title>Matplotlib v3.11.2, https://matplotlib.org/</dc:title>
     </cc:Agent>
    </dc:creator>
   </cc:Work>
  </rdf:RDF>
 </metadata>
 <defs>
  <style type="text/css">*{stroke-linejoin: round; stroke-linecap: butt}</style>
 </defs>
 <g id="figure_1">
  <g id="patch_1">
   <path d="M 0 617.142857 
L 720 617.142857 
L 720 0 
L 0 0 
z
" style="fill: #ffffff"/>
  </g>
  <g id="axes_1">
   <g id="patch_2">
    <path d="M 360 595.102041 
L 33.061224 595.102041 
Q 14.693878 595.102041 14.693878 576.734694 
L 14.693878 40.408163 
Q 14.693878 22.040816 33.061224 22.040816 
L 686.938776 22.040816 
Q 705.306122 22.040816 705.306122 40.408163 
L 705.306122 576.734694 
Q 705.306122 595.102041 686.938776 595.102041 
z
" clip-path="url(#pecbf88852a)" style="fill: #eef2f6; stroke: #bac4d2; stroke-width: 1.5; stroke-linejoin: miter"/>
   </g>
   <g id="text_1">
    <g clip-path="url(#pecbf88852a)">
     <text style="font-size: 11.5px; font-family: 'drawlib-cjk-japanese-noto-sans-bold', 'Noto Sans CJK JP'; text-anchor: middle; fill: #323a48" x="360" y="66.111909" transform="rotate(-0 360 66.111909)">1920 x 1080 Widescreen Stage Blueprint (Top-Left Origin)</text>
    </g>
   </g>
   <g id="patch_3">
    <path d="M 80.816327 444.489796 
L 80.816327 113.877551 
L 668.571429 113.877551 
L 668.571429 444.489796 
z
" clip-path="url(#pecbf88852a)" style="fill: #ffffff; stroke: #272727; stroke-width: 1.5; stroke-linejoin: miter"/>
   </g>
   <g id="patch_4">
    <path d="M 80.816327 125.632653 
C 83.933816 125.632653 86.924041 124.394061 89.128439 122.189663 
C 91.332837 119.985265 92.571429 116.995041 92.571429 113.877551 
C 92.571429 110.760062 91.332837 107.769837 89.128439 105.565439 
C 86.924041 103.361041 83.933816 102.122449 80.816327 102.122449 
C 77.698837 102.122449 74.708612 103.361041 72.504214 105.565439 
C 70.299816 107.769837 69.061224 110.760062 69.061224 113.877551 
C 69.061224 116.995041 70.299816 119.985265 72.504214 122.189663 
C 74.708612 124.394061 77.698837 125.632653 80.816327 125.632653 
z
" clip-path="url(#pecbf88852a)" style="fill: #8037c3"/>
   </g>
   <g id="text_2">
    <g clip-path="url(#pecbf88852a)">
     <text style="font-size: 7.8px; font-family: 'drawlib-cjk-japanese-noto-sans-bold', 'Noto Sans CJK JP'; text-anchor: start; fill: #4862da" x="80.816327" y="96.525238" transform="rotate(-0 80.816327 96.525238)">Stage (0, 0) Top-Left</text>
    </g>
   </g>
   <g id="text_3">
    <g clip-path="url(#pecbf88852a)">
     <text style="font-size: 7.8px; font-family: 'drawlib-cjk-japanese-noto-sans-bold', 'Noto Sans CJK JP'; text-anchor: end; fill: #5f6b7d" x="668.571429" y="466.923687" transform="rotate(-0 668.571429 466.923687)">(1920, 1080)</text>
    </g>
   </g>
   <g id="patch_5">
    <path d="M 374.693878 160.897959 
L 110.571429 160.897959 
Q 104.693878 160.897959 104.693878 155.020408 
L 104.693878 135.918367 
Q 104.693878 130.040816 110.571429 130.040816 
L 638.816327 130.040816 
Q 644.693878 130.040816 644.693878 135.918367 
L 644.693878 155.020408 
Q 644.693878 160.897959 638.816327 160.897959 
z
" clip-path="url(#pecbf88852a)" style="fill: #e8f2ff; stroke: #7891f2; stroke-width: 1.5; stroke-linejoin: miter"/>
   </g>
   <g id="text_4">
    <g clip-path="url(#pecbf88852a)">
     <text style="font-size: 7.8px; font-family: 'drawlib-cjk-japanese-noto-sans-bold', 'Noto Sans CJK JP'; text-anchor: middle; fill: #323a48" x="374.693878" y="147.95381" transform="rotate(-0 374.693878 147.95381)">::: block (80, 40) (1760, 60)  —  # Slide Heading Title</text>
    </g>
   </g>
   <g id="patch_6">
    <path d="M 220.408163 391.22449 
L 115.346939 391.22449 
Q 106.530612 391.22449 106.530612 382.408163 
L 106.530612 183.306122 
Q 106.530612 174.489796 115.346939 174.489796 
L 325.469388 174.489796 
Q 334.285714 174.489796 334.285714 183.306122 
L 334.285714 382.408163 
Q 334.285714 391.22449 325.469388 391.22449 
z
" clip-path="url(#pecbf88852a)" style="fill: #e6fafa; stroke: #55c3c3; stroke-width: 1.5; stroke-linejoin: miter"/>
   </g>
   <g id="text_5">
    <g clip-path="url(#pecbf88852a)">
     <text style="font-size: 8px; font-family: 'drawlib-cjk-japanese-noto-sans-bold', 'Noto Sans CJK JP'; fill: #323a48" transform="translate(166.495663 264.649018)">::: block (80, 140) (740, 840)</text>
    </g>
    <g clip-path="url(#pecbf88852a)">
     <text style="font-size: 8px; font-family: 'drawlib-cjk-japanese-noto-sans-bold', 'Noto Sans CJK JP'; fill: #323a48" transform="translate(220.408163 273.401518)"/>
    </g>
    <g clip-path="url(#pecbf88852a)">
     <text style="font-size: 8px; font-family: 'drawlib-cjk-japanese-noto-sans-bold', 'Noto Sans CJK JP'; fill: #323a48" transform="translate(180.110038 281.401518)">Markdown Narrative</text>
    </g>
    <g clip-path="url(#pecbf88852a)">
     <text style="font-size: 8px; font-family: 'drawlib-cjk-japanese-noto-sans-bold', 'Noto Sans CJK JP'; fill: #323a48" transform="translate(181.145038 289.401518)">• Headings &amp; Bullets</text>
    </g>
    <g clip-path="url(#pecbf88852a)">
     <text style="font-size: 8px; font-family: 'drawlib-cjk-japanese-noto-sans-bold', 'Noto Sans CJK JP'; fill: #323a48" transform="translate(189.732538 298.385268)">• Code Snippets</text>
    </g>
    <g clip-path="url(#pecbf88852a)">
     <text style="font-size: 8px; font-family: 'drawlib-cjk-japanese-noto-sans-bold', 'Noto Sans CJK JP'; fill: #323a48" transform="translate(184.333163 307.145268)">• Tables &amp; Callouts</text>
    </g>
   </g>
   <g id="patch_7">
    <path d="M 493.714286 391.22449 
L 353.755102 391.22449 
Q 344.938776 391.22449 344.938776 382.408163 
L 344.938776 183.306122 
Q 344.938776 174.489796 353.755102 174.489796 
L 633.673469 174.489796 
Q 642.489796 174.489796 642.489796 183.306122 
L 642.489796 382.408163 
Q 642.489796 391.22449 633.673469 391.22449 
z
" clip-path="url(#pecbf88852a)" style="fill: #4862da"/>
   </g>
   <g id="text_6">
    <g clip-path="url(#pecbf88852a)">
     <text style="font-size: 8px; font-family: 'drawlib-cjk-japanese-noto-sans-bold', 'Noto Sans CJK JP'; fill: #ffffff" transform="translate(437.441786 267.984643)">::: block (860, 140) (980, 840)</text>
    </g>
    <g clip-path="url(#pecbf88852a)">
     <text style="font-size: 8px; font-family: 'drawlib-cjk-japanese-noto-sans-bold', 'Noto Sans CJK JP'; fill: #ffffff" transform="translate(438.290536 277.089643)">```drawlib file:diagram.svg</text>
    </g>
    <g clip-path="url(#pecbf88852a)">
     <text style="font-size: 8px; font-family: 'drawlib-cjk-japanese-noto-sans-bold', 'Noto Sans CJK JP'; fill: #ffffff" transform="translate(439.038661 286.073393)">setup(width=98, height=84)</text>
    </g>
    <g clip-path="url(#pecbf88852a)">
     <text style="font-size: 8px; font-family: 'drawlib-cjk-japanese-noto-sans-bold', 'Noto Sans CJK JP'; fill: #ffffff" transform="translate(493.714286 295.057143)"/>
    </g>
    <g clip-path="url(#pecbf88852a)">
     <text style="font-size: 8px; font-family: 'drawlib-cjk-japanese-noto-sans-bold', 'Noto Sans CJK JP'; fill: #ffffff" transform="translate(417.903036 303.057143)">Cartesian Canvas (0, 0) at Bottom-Left!</text>
    </g>
   </g>
   <g id="patch_8">
    <path d="M 345.306122 401.877551 
C 348.228769 401.877551 351.032105 400.716371 353.098728 398.649748 
C 355.165351 396.583125 356.326531 393.779789 356.326531 390.857143 
C 356.326531 387.934496 355.165351 385.131161 353.098728 383.064538 
C 351.032105 380.997914 348.228769 379.836735 345.306122 379.836735 
C 342.383476 379.836735 339.58014 380.997914 337.513517 383.064538 
C 335.446894 385.131161 334.285714 387.934496 334.285714 390.857143 
C 334.285714 393.779789 335.446894 396.583125 337.513517 398.649748 
C 339.58014 400.716371 342.383476 401.877551 345.306122 401.877551 
z
" clip-path="url(#pecbf88852a)" style="fill: #8037c3"/>
   </g>
   <g id="text_7">
    <g clip-path="url(#pecbf88852a)">
     <text style="font-size: 7.2px; font-family: 'drawlib-cjk-japanese-noto-sans-bold', 'Noto Sans CJK JP'; text-anchor: start; fill: #ffffff" x="361.469388" y="380.764722" transform="rotate(-0 361.469388 380.764722)">Canvas (0, 0)</text>
    </g>
   </g>
   <g id="patch_9">
    <path d="M 231.428571 432 
L 110.938776 432 
Q 106.530612 432 106.530612 427.591837 
L 106.530612 412.897959 
Q 106.530612 408.489796 110.938776 408.489796 
L 351.918367 408.489796 
Q 356.326531 408.489796 356.326531 412.897959 
L 356.326531 427.591837 
Q 356.326531 432 351.918367 432 
z
" clip-path="url(#pecbf88852a)" style="fill: #eef2f6; stroke: #bac4d2; stroke-width: 1.5; stroke-linejoin: miter"/>
   </g>
   <g id="text_8">
    <g clip-path="url(#pecbf88852a)">
     <text style="font-size: 7px; font-family: 'drawlib-cjk-japanese-noto-sans-bold', 'Noto Sans CJK JP'; text-anchor: middle; fill: #5f6b7d" x="231.428571" y="422.575679" transform="rotate(-0 231.428571 422.575679)">::: block (80, 1010) (820, 30) — Footer</text>
    </g>
   </g>
   <g id="patch_10">
    <path d="M 598.77551 432 
L 559.102041 432 
Q 554.693878 432 554.693878 427.591837 
L 554.693878 412.897959 
Q 554.693878 408.489796 559.102041 408.489796 
L 638.44898 408.489796 
Q 642.857143 408.489796 642.857143 412.897959 
L 642.857143 427.591837 
Q 642.857143 432 638.44898 432 
z
" clip-path="url(#pecbf88852a)" style="fill: #8037c3"/>
   </g>
   <g id="text_9">
    <g clip-path="url(#pecbf88852a)">
     <text style="font-size: 7px; font-family: 'drawlib-cjk-japanese-noto-sans-bold', 'Noto Sans CJK JP'; text-anchor: middle; fill: #ffffff" x="598.77551" y="422.474507" transform="rotate(-0 598.77551 422.474507)">(1700, 1010) Page#</text>
    </g>
   </g>
   <g id="patch_11">
    <path d="M 360 569.387755 
L 62.44898 569.387755 
Q 51.428571 569.387755 51.428571 558.367347 
L 51.428571 506.938776 
Q 51.428571 495.918367 62.44898 495.918367 
L 657.55102 495.918367 
Q 668.571429 495.918367 668.571429 506.938776 
L 668.571429 558.367347 
Q 668.571429 569.387755 657.55102 569.387755 
z
" clip-path="url(#pecbf88852a)" style="fill: #ffffff; stroke: #272727; stroke-width: 1.5; stroke-linejoin: miter"/>
   </g>
   <g id="text_10">
    <g clip-path="url(#pecbf88852a)">
     <text style="font-size: 8.2px; font-family: 'drawlib-cjk-japanese-noto-sans-bold', 'Noto Sans CJK JP'; fill: #323a48" transform="translate(140.922906 530.717733)">Chapter Folder Discovery:  00_opening/*.md  -&gt;  01_why_drawlib/*.md  -&gt;  ...  -&gt;  07_ai_agent_workflow/*.md</text>
    </g>
    <g clip-path="url(#pecbf88852a)">
     <text style="font-size: 8.2px; font-family: 'drawlib-cjk-japanese-noto-sans-bold', 'Noto Sans CJK JP'; fill: #323a48" transform="translate(174.293703 539.926077)">Compiled in deterministic lexical order with automatic current_slide (index / total) injection.</text>
    </g>
   </g>
  </g>
 </g>
 <defs>
  <clipPath id="pecbf88852a">
   <rect x="0" y="0" width="720" height="617.142857"/>
  </clipPath>
 </defs>
<!-- drawlib-svg-fonts: [{"family":"drawlib-cjk-japanese-noto-sans-bold","rel_path":"_assets/fonts/cjk_japanese_noto_sans/bold.otf","src":"builtin:fonts/cjk_japanese_noto_sans/bold.otf","format":"opentype"}] -->
</svg>
